<svg id="svg" version="1.1" xmlns="http://www.w3.org/2000/svg" xmlns:xlink="http://www.w3.org/1999/xlink" width="400" height="335.81213307240705" viewBox="0, 0, 400,335.81213307240705"><g id="svgg"><path id="path0" d="M319.345 172.011 C 280.396 199.316,227.062 236.686,200.826 255.055 L 153.123 288.454 153.280 300.050 C 153.367 306.428,153.486 311.695,153.546 311.754 C 153.605 311.813,157.036 309.477,161.171 306.563 C 165.306 303.648,218.356 266.284,279.061 223.531 C 339.765 180.778,389.472 145.763,389.520 145.719 C 389.636 145.613,390.356 122.559,390.247 122.450 C 390.200 122.403,358.295 144.705,319.345 172.011 M5.540 181.344 C 5.540 181.846,5.594 182.052,5.659 181.800 C 5.725 181.549,5.725 181.138,5.659 180.887 C 5.594 180.636,5.540 180.841,5.540 181.344 M10.698 221.869 C 10.698 221.914,11.080 222.296,11.546 222.717 L 12.394 223.483 11.628 222.635 C 10.913 221.845,10.698 221.667,10.698 221.869 M21.135 230.987 C 21.135 231.049,21.751 231.613,22.505 232.242 C 23.258 232.870,23.710 233.177,23.508 232.925 C 23.104 232.417,21.135 230.810,21.135 230.987 M31.856 240.378 C 31.917 240.414,32.376 240.796,32.878 241.226 L 33.790 242.009 33.024 241.161 C 32.602 240.695,32.142 240.313,32.002 240.313 C 31.861 240.313,31.796 240.342,31.856 240.378 M42.009 249.005 C 42.009 249.050,42.391 249.432,42.857 249.853 L 43.705 250.620 42.939 249.772 C 42.224 248.981,42.009 248.804,42.009 249.005 M52.446 258.124 C 52.446 258.185,53.063 258.749,53.816 259.378 C 54.569 260.006,55.021 260.314,54.820 260.061 C 54.415 259.554,52.446 257.947,52.446 258.124 M63.405 267.531 C 63.405 267.576,63.787 267.958,64.253 268.379 L 65.101 269.145 64.335 268.297 C 63.620 267.507,63.405 267.330,63.405 267.531 M73.320 276.142 C 73.320 276.187,73.702 276.568,74.168 276.990 L 75.016 277.756 74.250 276.908 C 73.536 276.118,73.320 275.940,73.320 276.142 M83.757 285.260 C 83.757 285.321,84.374 285.886,85.127 286.514 C 85.881 287.143,86.332 287.450,86.131 287.198 C 85.726 286.690,83.757 285.083,83.757 285.260 M94.716 294.667 C 94.716 294.712,95.098 295.094,95.564 295.515 L 96.412 296.282 95.646 295.434 C 94.932 294.643,94.716 294.466,94.716 294.667 M104.631 303.278 C 104.631 303.323,105.013 303.705,105.479 304.126 L 106.327 304.892 105.561 304.044 C 104.847 303.254,104.631 303.076,104.631 303.278 M115.068 312.396 C 115.068 312.458,115.685 313.022,116.438 313.651 C 117.192 314.279,117.643 314.586,117.442 314.334 C 117.037 313.826,115.068 312.219,115.068 312.396 M126.027 321.804 C 126.027 321.849,126.409 322.230,126.875 322.652 L 127.723 323.418 126.957 322.570 C 126.243 321.780,126.027 321.602,126.027 321.804 " stroke="none" fill="#f3b361" fill-rule="evenodd"></path><path id="path1" d="M379.778 123.671 C 371.311 129.495,344.481 147.950,320.157 164.681 C 295.832 181.412,245.930 215.741,209.263 240.969 C 172.596 266.198,142.313 286.897,141.967 286.967 L 141.338 287.096 141.510 301.343 C 141.605 309.179,141.683 318.731,141.683 322.570 C 141.683 326.763,141.781 329.550,141.929 329.550 C 142.370 329.550,391.757 155.771,392.613 154.867 C 393.071 154.384,393.514 153.598,393.598 153.120 C 393.862 151.617,395.521 113.952,395.343 113.505 C 395.207 113.166,392.046 115.231,379.778 123.671 M389.970 134.087 C 389.771 140.440,389.568 145.675,389.520 145.719 C 389.472 145.763,339.765 180.778,279.061 223.531 C 218.356 266.284,165.306 303.648,161.171 306.563 C 157.036 309.477,153.605 311.813,153.546 311.754 C 153.486 311.695,153.367 306.428,153.280 300.050 L 153.123 288.454 200.826 255.055 C 227.062 236.686,280.396 199.316,319.345 172.011 C 358.295 144.705,390.200 122.403,390.247 122.450 C 390.294 122.496,390.169 127.733,389.970 134.087 M138.850 329.526 C 138.588 329.689,138.575 329.795,138.802 329.935 C 139.160 330.156,139.429 329.960,139.297 329.575 C 139.242 329.417,139.058 329.396,138.850 329.526 " stroke="none" fill="#d4c3a3" fill-rule="evenodd"></path><path id="path2" d="M248.738 10.216 C 244.607 12.965,207.410 37.841,166.080 65.496 C 124.749 93.151,72.557 128.065,50.098 143.082 C 27.639 158.099,8.884 170.738,8.422 171.168 C 7.959 171.598,7.481 171.950,7.358 171.950 C 6.722 171.950,5.219 174.419,5.219 175.465 C 5.219 175.686,5.444 175.864,5.725 175.864 C 6.014 175.864,34.944 199.456,72.918 230.659 C 109.595 260.796,139.776 285.453,139.988 285.453 C 140.200 285.453,140.877 285.072,141.491 284.605 C 142.106 284.139,199.115 244.898,268.179 197.404 C 361.226 133.417,393.646 110.994,393.352 110.829 C 393.126 110.703,392.955 110.247,392.954 109.772 C 392.953 108.557,392.186 107.483,390.171 105.873 C 384.995 101.738,260.069 5.976,259.397 5.629 C 257.365 4.578,256.933 4.764,248.738 10.216 M316.373 61.418 C 348.950 86.424,375.580 106.993,375.552 107.127 C 375.456 107.579,279.130 172.987,278.832 172.803 C 278.461 172.574,254.860 154.999,254.607 154.764 C 254.504 154.668,255.502 153.950,256.825 153.169 C 271.108 144.730,284.438 132.916,292.012 121.983 C 295.806 116.506,298.450 111.388,300.094 106.337 C 303.284 96.539,301.979 86.639,296.590 79.757 C 277.989 56.002,218.777 63.194,177.118 94.269 C 176.115 95.017,175.255 95.629,175.207 95.629 C 174.847 95.629,157.658 82.551,157.814 82.395 C 158.292 81.917,256.647 15.954,256.882 15.954 C 257.025 15.954,283.796 36.413,316.373 61.418 M265.760 86.823 C 265.658 87.218,265.529 89.654,265.475 92.237 C 264.896 119.501,256.819 134.081,236.138 145.194 C 219.255 154.267,213.053 166.103,215.304 184.953 C 215.877 189.750,213.784 192.569,209.891 192.246 C 205.620 191.892,204.379 188.234,204.643 176.778 C 205.066 158.463,213.081 146.000,230.597 136.426 C 245.900 128.061,252.151 119.282,254.518 102.830 C 254.649 101.915,254.615 101.736,254.347 101.948 C 254.163 102.094,236.458 115.974,215.003 132.791 C 179.575 160.562,175.968 163.458,175.701 164.342 C 169.462 185.040,118.860 179.853,113.382 157.953 C 108.899 140.031,144.497 131.470,165.350 145.456 C 165.895 145.821,166.810 146.432,167.384 146.813 C 167.958 147.194,169.513 148.600,170.840 149.937 L 173.252 152.368 213.501 120.784 C 239.886 100.080,254.245 88.975,255.186 88.545 C 259.257 86.688,261.117 86.188,264.153 86.136 L 265.945 86.106 265.760 86.823 M118.027 195.564 C 149.965 221.539,176.103 242.863,176.111 242.949 C 176.119 243.036,168.665 248.185,159.547 254.391 L 142.969 265.675 142.184 265.062 C 138.687 262.331,27.710 169.948,27.744 169.798 C 27.804 169.534,59.577 148.193,59.789 148.273 C 59.881 148.308,86.088 169.589,118.027 195.564 " stroke="none" fill="#fbfbf4" fill-rule="evenodd"></path><path id="path3" d="M253.299 65.682 C 253.768 65.740,254.472 65.738,254.864 65.679 C 255.257 65.619,254.873 65.572,254.012 65.573 C 253.151 65.575,252.830 65.624,253.299 65.682 M393.468 111.257 C 393.257 111.457,387.626 115.370,380.952 119.953 C 374.279 124.536,350.209 141.084,327.462 156.727 C 304.716 172.370,253.523 207.570,213.699 234.949 C 173.875 262.328,141.150 284.907,140.978 285.124 C 140.597 285.604,141.293 286.737,141.977 286.750 C 142.210 286.754,165.987 270.537,194.814 250.710 C 223.642 230.884,280.104 192.061,320.287 164.437 C 360.470 136.812,393.757 113.905,394.260 113.531 C 394.762 113.158,395.261 112.881,395.369 112.917 C 395.476 112.952,395.564 112.633,395.564 112.207 C 395.564 111.063,394.282 110.482,393.468 111.257 M5.606 180.446 C 5.687 181.586,6.045 190.033,6.403 199.217 C 6.760 208.402,7.113 216.390,7.187 216.969 C 7.442 218.971,7.682 219.209,21.135 230.830 C 26.083 235.105,32.962 241.063,41.724 248.663 C 44.784 251.318,49.257 255.192,51.663 257.273 C 54.070 259.354,58.543 263.229,61.603 265.884 C 64.664 268.539,69.521 272.750,72.397 275.242 C 75.273 277.735,80.033 281.860,82.975 284.410 C 85.917 286.959,90.677 291.085,93.552 293.577 C 96.428 296.069,101.285 300.280,104.346 302.935 C 107.407 305.590,111.813 309.406,114.138 311.416 C 118.071 314.815,122.534 318.684,131.216 326.222 C 135.333 329.796,136.448 330.372,138.125 329.792 L 139.204 329.419 139.100 311.155 C 139.042 301.109,138.925 291.754,138.839 290.365 L 138.682 287.841 120.157 272.617 C 109.967 264.243,80.202 239.794,54.012 218.285 C 27.821 196.776,6.183 178.997,5.926 178.776 C 5.481 178.393,5.466 178.473,5.606 180.446 " stroke="none" fill="#ebdbcb" fill-rule="evenodd"></path><path id="path4" d="M257.926 207.329 L 257.143 208.001 257.991 207.440 C 258.457 207.132,258.839 206.828,258.839 206.766 C 258.839 206.571,258.728 206.639,257.926 207.329 M253.751 210.199 L 252.968 210.872 253.816 210.310 C 254.282 210.002,254.664 209.698,254.664 209.637 C 254.664 209.441,254.554 209.509,253.751 210.199 M249.576 213.069 L 248.793 213.742 249.641 213.181 C 250.108 212.872,250.489 212.569,250.489 212.507 C 250.489 212.311,250.379 212.379,249.576 213.069 M204.436 244.119 L 203.653 244.792 204.501 244.231 C 204.967 243.922,205.349 243.619,205.349 243.557 C 205.349 243.362,205.238 243.430,204.436 244.119 M159.295 275.170 L 158.513 275.842 159.361 275.281 C 159.827 274.972,160.209 274.669,160.209 274.607 C 160.209 274.412,160.098 274.480,159.295 275.170 M155.121 278.040 L 154.338 278.712 155.186 278.151 C 155.652 277.843,156.034 277.539,156.034 277.477 C 156.034 277.282,155.923 277.350,155.121 278.040 M150.946 280.910 L 150.163 281.583 151.011 281.021 C 151.477 280.713,151.859 280.410,151.859 280.348 C 151.859 280.152,151.749 280.220,150.946 280.910 M146.771 283.780 L 145.988 284.453 146.836 283.892 C 147.303 283.583,147.684 283.280,147.684 283.218 C 147.684 283.022,147.574 283.090,146.771 283.780 M139.147 286.309 C 138.962 286.716,138.944 292.449,139.092 304.509 C 139.210 314.191,139.313 324.131,139.321 326.596 C 139.332 330.310,139.405 331.148,139.745 331.488 C 140.829 332.573,142.038 331.407,141.838 329.468 C 141.336 324.603,141.381 287.019,141.888 287.019 C 142.174 287.019,142.685 286.775,143.024 286.476 L 143.640 285.933 142.995 286.346 C 142.132 286.897,141.614 286.865,141.222 286.236 C 140.757 285.493,139.499 285.537,139.147 286.309 " stroke="none" fill="#dbccbc" fill-rule="evenodd"></path><path id="path5" d="M207.198 49.223 L 157.578 82.520 166.134 88.902 C 176.335 96.511,174.958 95.863,177.241 94.129 C 222.098 60.054,288.130 55.620,300.141 85.875 C 302.820 92.622,302.304 102.363,298.874 109.792 C 298.525 110.549,298.239 111.234,298.239 111.314 C 298.239 111.394,297.785 112.359,297.230 113.459 C 290.053 127.694,275.788 141.802,257.208 153.041 C 255.809 153.887,254.669 154.643,254.675 154.720 C 254.694 154.966,278.974 172.866,279.203 172.803 C 279.437 172.739,375.194 107.591,375.555 107.251 C 375.713 107.102,258.678 17.036,257.110 16.101 C 256.949 16.005,234.530 30.882,207.198 49.223 M260.796 86.495 C 255.558 87.657,258.106 85.809,213.563 120.754 L 173.223 152.401 171.086 150.213 C 169.096 148.175,167.051 146.502,165.208 145.405 C 162.749 143.941,161.902 143.499,159.906 142.642 C 134.825 131.869,105.788 143.696,114.585 161.100 C 124.519 180.752,168.719 183.505,175.458 164.892 L 176.015 163.353 215.266 132.571 C 236.854 115.640,254.545 101.816,254.580 101.851 C 254.923 102.194,253.218 110.058,252.106 113.264 C 248.559 123.485,242.750 129.773,230.820 136.309 C 212.648 146.264,204.566 159.205,204.566 178.346 C 204.566 189.124,206.253 192.769,210.995 192.234 C 214.873 191.797,215.735 189.544,215.028 181.690 C 213.563 165.402,220.246 153.750,235.877 145.337 C 257.201 133.861,264.976 119.572,265.482 90.933 C 265.517 88.924,265.636 87.016,265.745 86.693 C 265.988 85.979,263.558 85.882,260.796 86.495 M43.735 158.910 C 34.997 164.782,27.798 169.636,27.736 169.698 C 27.674 169.760,53.023 190.920,84.066 216.720 C 115.110 242.520,141.056 264.087,141.724 264.647 L 142.939 265.664 159.531 254.363 L 176.123 243.062 175.537 242.498 C 174.905 241.889,59.764 148.197,59.675 148.220 C 59.646 148.227,52.473 153.037,43.735 158.910 " stroke="none" fill="#fcc478" fill-rule="evenodd"></path><path id="path6" d="M4.749 176.177 C 4.128 176.799,4.410 177.627,5.545 178.513 C 6.557 179.304,75.252 235.709,120.157 272.621 C 137.776 287.104,138.687 287.813,138.769 287.108 C 138.817 286.700,139.028 286.175,139.239 285.941 C 139.713 285.412,148.889 293.060,71.544 229.520 C 6.615 176.179,5.577 175.349,4.749 176.177 " stroke="none" fill="#ede4db" fill-rule="evenodd"></path></g></svg>