<svg id="svg" version="1.1" xmlns="http://www.w3.org/2000/svg" xmlns:xlink="http://www.w3.org/1999/xlink" width="400" height="331.0204081632653" viewBox="0, 0, 400,331.0204081632653"><g id="svgg"><path id="path0" d="M271.020 3.815 C 267.458 4.198,263.401 5.322,260.510 6.728 C 259.163 7.383,257.184 8.156,256.112 8.445 C 255.040 8.734,253.020 9.333,251.622 9.777 C 244.524 12.031,239.463 13.061,235.492 13.061 C 234.075 13.061,232.009 13.227,230.558 13.457 C 227.742 13.903,226.088 13.966,222.543 13.762 C 218.233 13.514,213.983 14.937,210.591 17.762 L 209.652 18.545 208.653 17.519 C 204.233 12.982,198.319 12.021,191.769 14.774 C 188.131 16.303,186.144 17.103,184.388 17.744 C 183.378 18.113,181.541 18.895,180.306 19.484 C 177.674 20.737,176.668 21.071,174.184 21.515 C 170.799 22.120,168.022 23.865,166.108 26.591 C 164.768 28.499,164.707 28.403,167.806 29.284 C 169.293 29.707,174.237 31.129,178.793 32.442 L 187.076 34.831 187.116 33.691 C 187.218 30.794,188.274 26.914,189.775 23.918 C 193.893 15.705,201.774 12.734,206.780 17.509 C 207.896 18.574,208.358 19.592,207.723 19.592 C 207.273 19.592,206.117 20.640,205.404 21.695 C 205.009 22.278,204.232 23.338,203.677 24.051 C 201.960 26.256,200.403 32.720,200.644 36.647 C 200.714 37.785,200.714 37.786,200.171 37.677 C 198.819 37.406,198.778 37.464,183.281 61.620 C 171.736 79.614,168.750 84.403,168.826 84.801 C 168.881 85.084,168.801 85.404,168.645 85.534 C 168.492 85.661,168.369 85.960,168.372 86.198 C 168.376 86.545,168.445 86.495,168.712 85.952 C 169.156 85.050,167.662 84.496,185.918 92.332 C 204.499 100.307,203.263 99.691,202.441 100.574 C 202.209 100.823,202.132 101.020,202.268 101.020 C 202.820 101.020,235.217 51.962,235.995 49.948 C 236.320 49.108,236.678 49.101,239.407 49.887 C 242.332 50.729,242.080 50.795,241.832 49.253 C 241.161 45.087,243.022 35.522,245.530 30.238 C 246.099 29.041,246.797 27.418,247.083 26.633 C 248.185 23.600,249.911 20.711,252.171 18.116 C 258.316 11.058,259.154 10.226,261.837 8.523 C 275.129 0.084,288.290 10.092,296.120 34.592 C 296.550 35.939,297.192 37.821,297.546 38.776 C 298.155 40.417,298.626 42.792,299.199 47.108 C 299.888 52.299,298.937 61.699,297.347 65.408 C 297.122 65.932,296.939 66.429,296.939 66.513 C 296.939 66.650,298.404 67.194,298.480 67.085 C 300.895 63.629,302.391 58.564,302.165 54.611 C 302.094 53.366,302.009 50.832,301.976 48.980 C 301.910 45.279,301.566 43.499,300.426 40.959 C 300.098 40.228,299.767 39.093,299.689 38.437 C 299.197 34.272,297.166 28.375,294.989 24.789 C 294.486 23.960,293.750 22.429,293.353 21.386 C 292.469 19.067,290.271 15.139,288.829 13.301 C 288.241 12.552,287.213 11.240,286.545 10.386 C 284.076 7.227,281.756 5.636,278.111 4.601 C 275.467 3.851,273.118 3.590,271.020 3.815 M373.721 83.878 C 373.721 84.270,373.763 84.431,373.814 84.235 C 373.865 84.038,373.865 83.717,373.814 83.520 C 373.763 83.324,373.721 83.485,373.721 83.878 M102.245 111.856 C 100.393 112.181,90.015 113.965,79.184 115.819 C 68.352 117.673,59.260 119.307,58.980 119.450 C 58.384 119.753,58.270 120.748,58.793 121.078 C 59.059 121.246,101.307 114.190,105.607 113.260 C 106.851 112.990,107.227 112.329,106.531 111.633 C 106.043 111.145,106.389 111.127,102.245 111.856 M342.753 121.833 C 342.824 121.947,342.758 122.041,342.606 122.041 C 342.449 122.041,342.312 122.296,342.286 122.638 C 342.218 123.534,364.816 150.886,365.703 150.981 C 366.721 151.090,366.757 150.068,365.780 148.789 C 362.308 144.247,343.872 122.242,343.302 121.960 C 342.930 121.776,342.682 121.719,342.753 121.833 M239.592 143.177 C 232.801 145.013,224.903 147.123,222.041 147.866 C 215.786 149.490,215.918 149.442,215.918 150.090 C 215.918 151.458,216.741 151.359,225.714 148.915 C 229.587 147.860,237.163 145.819,242.551 144.380 C 252.502 141.720,253.061 141.524,253.061 140.690 C 253.061 139.440,254.173 139.235,239.592 143.177 M53.888 141.518 C 53.753 141.680,53.673 141.991,53.710 142.209 C 53.746 142.430,53.577 142.775,53.328 142.987 L 52.881 143.367 52.745 207.347 C 52.654 250.030,52.677 271.496,52.814 271.837 C 52.958 272.196,53.916 272.865,56.050 274.097 C 57.717 275.059,65.611 279.631,73.591 284.256 C 83.421 289.953,88.211 292.622,88.444 292.533 C 89.265 292.217,89.222 295.579,89.489 210.714 C 89.545 192.867,89.592 172.227,89.592 164.847 L 89.592 151.429 90.087 151.429 C 91.110 151.429,91.562 150.425,90.765 149.926 C 90.331 149.654,55.163 141.224,54.462 141.224 C 54.281 141.224,54.022 141.357,53.888 141.518 M388.865 177.602 L 388.265 178.265 388.929 177.666 C 389.547 177.107,389.686 176.939,389.528 176.939 C 389.493 176.939,389.194 177.237,388.865 177.602 " stroke="none" fill="#e95c3b" fill-rule="evenodd"></path><path id="path1" d="M270.149 5.657 C 270.511 5.703,271.154 5.703,271.577 5.659 C 272.001 5.615,271.704 5.578,270.918 5.577 C 270.133 5.576,269.786 5.612,270.149 5.657 M281.020 9.462 C 281.020 9.518,281.296 9.760,281.633 10.000 C 281.969 10.240,282.245 10.390,282.245 10.334 C 282.245 10.278,281.969 10.036,281.633 9.796 C 281.296 9.556,281.020 9.406,281.020 9.462 M283.673 11.735 C 284.397 12.464,285.034 13.061,285.090 13.061 C 285.146 13.061,284.601 12.464,283.878 11.735 C 283.154 11.005,282.517 10.408,282.461 10.408 C 282.405 10.408,282.950 11.005,283.673 11.735 M257.848 11.684 L 257.041 12.551 257.908 11.744 C 258.385 11.301,258.776 10.910,258.776 10.877 C 258.776 10.723,258.598 10.877,257.848 11.684 M252.950 17.194 L 252.143 18.061 253.010 17.255 C 253.487 16.811,253.878 16.420,253.878 16.387 C 253.878 16.233,253.700 16.387,252.950 17.194 M191.722 20.663 L 191.122 21.327 191.786 20.727 C 192.151 20.397,192.449 20.099,192.449 20.064 C 192.449 19.906,192.281 20.045,191.722 20.663 M241.691 47.653 C 241.693 48.214,241.732 48.420,241.779 48.109 C 241.826 47.799,241.825 47.340,241.776 47.089 C 241.728 46.838,241.689 47.092,241.691 47.653 M336.702 54.795 C 336.634 54.862,334.571 55.001,332.116 55.103 C 320.064 55.602,310.270 59.602,303.501 66.788 C 301.067 69.372,300.808 69.805,301.305 70.459 C 301.551 70.784,301.756 70.633,303.564 68.794 C 311.377 60.841,324.663 57.102,339.490 58.682 C 341.173 58.862,344.571 59.044,347.041 59.087 C 357.657 59.273,364.123 62.471,367.540 69.227 C 368.839 71.796,369.083 73.262,369.075 78.469 L 369.069 82.959 367.990 86.412 C 366.250 91.981,365.333 93.651,361.920 97.462 C 355.665 104.445,354.901 105.228,352.245 107.372 C 347.994 110.802,342.127 113.498,338.163 113.842 L 336.570 113.980 339.612 117.810 C 341.558 120.259,342.893 121.758,343.317 121.967 C 343.764 122.189,347.462 126.520,354.694 135.294 L 365.408 148.292 366.335 148.053 C 372.093 146.569,380.247 138.933,380.929 134.387 C 381.088 133.330,381.288 133.133,381.907 133.423 C 384.295 134.544,384.808 134.882,386.002 136.118 C 388.839 139.057,388.794 145.151,385.906 149.116 C 383.627 152.246,382.445 153.650,381.368 154.506 C 380.745 155.002,379.731 155.816,379.115 156.315 C 378.499 156.813,376.981 157.784,375.740 158.473 L 373.485 159.724 380.744 168.689 C 384.736 173.619,388.093 177.745,388.203 177.857 C 388.475 178.134,390.007 176.388,390.785 174.916 C 392.688 171.314,392.691 167.574,390.794 162.723 C 389.865 160.347,389.484 158.070,389.400 154.388 C 389.376 153.378,389.287 151.908,389.201 151.122 C 389.099 150.196,389.155 148.578,389.358 146.520 C 389.984 140.195,388.251 136.302,383.414 133.163 C 382.153 132.345,381.860 132.061,381.934 131.728 C 382.957 127.128,381.811 119.282,379.403 114.404 C 378.622 112.822,377.696 110.701,377.346 109.692 C 376.995 108.683,376.536 107.398,376.325 106.837 C 376.114 106.276,375.575 104.668,375.126 103.265 L 374.311 100.714 374.077 93.061 C 373.527 75.027,373.551 75.322,372.357 72.150 C 370.853 68.153,366.651 62.486,363.577 60.309 C 360.216 57.928,355.099 56.084,350.510 55.601 C 348.939 55.436,346.872 55.176,345.918 55.023 C 344.176 54.744,336.932 54.565,336.702 54.795 M168.718 85.952 C 168.268 86.880,166.915 86.216,185.335 94.108 L 201.906 101.207 202.381 100.655 C 202.969 99.971,202.971 99.879,202.398 99.507 C 201.830 99.138,170.061 85.492,169.473 85.364 C 169.149 85.293,168.969 85.433,168.718 85.952 M341.566 122.908 C 340.942 123.744,310.355 170.748,310.013 171.397 C 309.520 172.332,309.895 172.714,322.089 183.706 C 335.551 195.842,335.279 195.611,335.906 195.412 C 336.286 195.292,365.903 151.261,365.677 151.153 C 365.641 151.136,365.458 151.031,365.269 150.918 C 364.354 150.375,342.211 123.191,342.301 122.722 C 342.428 122.057,342.150 122.127,341.566 122.908 M252.449 141.646 C 252.199 141.792,241.574 144.674,220.408 150.337 C 219.005 150.712,217.641 151.019,217.378 151.020 L 216.898 151.020 217.020 173.929 C 217.087 186.528,217.197 218.005,217.265 243.878 C 217.392 292.753,217.368 291.633,218.306 291.633 C 218.787 291.633,251.817 272.922,252.944 272.011 C 253.360 271.675,253.360 271.652,253.517 218.950 C 253.759 138.164,253.796 140.857,252.449 141.646 M366.443 150.321 C 366.368 150.620,366.353 150.910,366.409 150.967 C 366.465 151.023,366.572 150.824,366.647 150.525 C 366.722 150.226,366.738 149.935,366.682 149.879 C 366.626 149.823,366.518 150.022,366.443 150.321 " stroke="none" fill="#d05133" fill-rule="evenodd"></path><path id="path2" d="M267.377 6.113 C 264.214 6.890,260.235 9.344,257.551 12.173 C 251.513 18.538,248.761 22.373,247.173 26.633 C 246.839 27.531,246.110 29.230,245.554 30.408 C 242.693 36.475,240.756 48.461,242.310 50.477 C 242.493 50.715,272.834 59.596,296.519 66.345 C 297.127 66.518,298.532 61.978,298.957 58.469 C 299.853 51.067,299.010 42.070,296.979 37.337 C 296.760 36.827,296.331 35.587,296.027 34.582 C 289.915 14.423,278.743 3.322,267.377 6.113 M199.218 15.515 C 193.606 16.332,187.915 24.695,187.230 33.130 L 187.093 34.824 192.882 36.480 C 198.163 37.991,198.702 38.109,199.021 37.819 C 199.233 37.628,199.607 37.537,199.966 37.589 L 200.559 37.677 200.667 35.318 C 200.899 30.208,201.981 26.105,203.685 23.878 C 204.243 23.148,205.020 22.072,205.412 21.487 C 205.833 20.859,206.500 20.204,207.042 19.886 C 208.178 19.221,208.179 19.078,207.058 17.908 C 204.960 15.719,202.655 15.015,199.218 15.515 M328.265 58.576 C 322.485 58.776,317.085 60.230,311.199 63.170 C 307.859 64.838,301.835 69.747,301.838 70.798 C 301.838 70.976,305.534 75.679,310.052 81.249 C 314.569 86.818,322.352 96.443,327.347 102.637 L 336.429 113.899 338.061 113.812 C 343.764 113.508,351.614 108.901,357.449 102.434 C 365.904 93.062,365.920 93.038,367.990 86.412 L 369.069 82.959 369.075 78.469 C 369.083 73.262,368.839 71.796,367.540 69.227 C 365.297 64.792,360.904 61.433,355.510 60.028 C 352.311 59.195,352.142 59.176,347.041 59.087 C 344.571 59.044,341.173 58.865,339.490 58.689 C 336.342 58.359,334.938 58.345,328.265 58.576 M199.551 110.926 C 199.114 111.885,199.188 111.905,217.469 115.848 C 241.204 120.967,242.653 121.201,242.653 119.916 C 242.653 119.177,242.331 119.041,239.489 118.579 C 238.032 118.342,228.728 116.407,218.812 114.278 C 199.064 110.039,199.890 110.183,199.551 110.926 M381.134 133.520 C 381.092 133.661,380.950 134.235,380.819 134.796 C 379.734 139.447,371.320 147.119,366.263 148.067 C 365.353 148.238,365.353 148.237,366.140 149.133 C 366.652 149.716,366.747 149.970,366.650 150.487 C 366.510 151.235,372.938 159.501,373.642 159.478 C 374.280 159.457,378.510 156.916,379.866 155.739 C 380.593 155.108,381.540 154.307,381.971 153.959 C 382.695 153.375,383.484 152.403,385.970 149.029 C 387.837 146.495,388.589 141.864,387.656 138.653 C 387.214 137.133,385.264 135.033,383.518 134.198 C 382.874 133.889,382.187 133.553,381.993 133.451 C 381.506 133.196,381.226 133.218,381.134 133.520 " stroke="none" fill="#801102" fill-rule="evenodd"></path><path id="path3" d="M155.847 96.230 C 155.913 96.402,156.162 96.644,156.402 96.768 C 156.802 96.976,156.797 96.951,156.342 96.456 C 155.773 95.838,155.680 95.795,155.847 96.230 M169.184 106.010 C 169.184 106.906,169.691 107.947,170.174 108.045 C 170.471 108.105,190.126 112.105,213.851 116.934 C 237.576 121.763,257.206 125.714,257.473 125.714 C 258.638 125.714,257.439 124.974,254.490 123.872 C 253.648 123.557,252.684 123.165,252.347 123.000 C 251.615 122.642,243.499 121.046,238.776 120.332 C 236.923 120.052,227.327 118.081,217.449 115.952 C 207.571 113.823,192.878 110.735,184.796 109.090 C 176.714 107.444,169.895 106.048,169.643 105.986 C 169.390 105.925,169.184 105.935,169.184 106.010 M261.692 137.223 C 253.569 139.411,252.516 139.740,252.886 139.971 C 253.199 140.166,253.285 140.388,253.220 140.831 C 253.111 141.573,251.901 141.812,262.229 139.056 C 271.392 136.611,271.553 136.554,271.667 135.741 C 271.838 134.521,271.592 134.557,261.692 137.223 M362.857 220.064 C 362.857 220.099,363.156 220.397,363.520 220.727 L 364.184 221.327 363.584 220.663 C 363.026 220.045,362.857 219.906,362.857 220.064 M365.816 222.857 C 366.255 223.306,366.659 223.673,366.715 223.673 C 366.772 223.673,366.459 223.306,366.020 222.857 C 365.582 222.408,365.177 222.041,365.121 222.041 C 365.065 222.041,365.378 222.408,365.816 222.857 M368.563 225.357 C 369.409 226.258,369.592 226.420,369.592 226.267 C 369.592 226.234,369.156 225.798,368.622 225.298 L 367.653 224.388 368.563 225.357 " stroke="none" fill="#a08984" fill-rule="evenodd"></path><path id="path4" d="M152.188 27.296 C 151.974 28.029,126.354 67.254,125.955 67.461 C 125.584 67.653,125.688 67.740,126.902 68.255 C 127.652 68.573,129.735 69.470,131.531 70.248 C 133.327 71.026,136.173 72.260,137.857 72.989 C 144.896 76.039,146.811 76.875,150.252 78.398 C 152.243 79.279,153.915 80.000,153.967 80.000 C 154.051 80.000,158.258 81.845,165.669 85.132 L 167.971 86.153 168.357 85.679 C 168.569 85.418,168.740 84.974,168.735 84.694 C 168.730 84.358,173.586 76.614,182.935 62.051 C 190.749 49.877,197.073 39.855,196.989 39.779 C 196.832 39.636,152.819 26.939,152.482 26.939 C 152.378 26.939,152.246 27.099,152.188 27.296 M219.717 75.259 C 210.975 88.698,203.673 99.836,203.492 100.009 C 202.578 100.885,202.583 101.209,203.515 101.613 C 203.995 101.822,206.471 102.921,209.017 104.057 C 211.564 105.193,213.735 106.122,213.844 106.122 C 213.952 106.122,217.732 107.776,222.245 109.796 C 226.757 111.816,230.494 113.469,230.549 113.469 C 230.603 113.469,233.372 114.676,236.702 116.150 C 240.031 117.625,243.306 119.041,243.980 119.297 C 244.653 119.553,245.939 120.100,246.837 120.512 C 249.458 121.714,254.097 123.697,255.204 124.089 C 255.765 124.288,257.372 124.996,258.776 125.662 C 261.154 126.793,261.433 126.877,262.897 126.908 C 264.841 126.948,263.575 128.627,273.417 112.959 C 277.789 106.000,285.512 93.711,290.580 85.650 C 300.392 70.045,300.205 70.376,299.705 69.410 C 299.310 68.645,299.547 68.586,300.204 69.286 C 301.003 70.136,301.123 69.856,300.357 68.929 C 299.963 68.452,299.582 68.086,299.509 68.117 C 299.436 68.148,299.172 67.938,298.923 67.651 C 298.369 67.013,296.414 66.340,296.611 66.855 C 296.816 67.389,296.365 67.959,295.739 67.959 C 295.319 67.959,260.401 58.010,235.918 50.914 C 235.700 50.851,231.047 57.842,219.717 75.259 M131.429 72.347 C 131.809 72.740,132.167 73.061,132.223 73.061 C 132.279 73.061,132.013 72.740,131.633 72.347 C 131.252 71.954,130.894 71.633,130.838 71.633 C 130.782 71.633,131.048 71.954,131.429 72.347 M133.265 74.184 C 133.646 74.577,134.004 74.898,134.060 74.898 C 134.116 74.898,133.850 74.577,133.469 74.184 C 133.089 73.791,132.731 73.469,132.675 73.469 C 132.619 73.469,132.885 73.791,133.265 74.184 M136.939 77.857 C 137.662 78.587,138.299 79.184,138.356 79.184 C 138.412 79.184,137.866 78.587,137.143 77.857 C 136.420 77.128,135.782 76.531,135.726 76.531 C 135.670 76.531,136.216 77.128,136.939 77.857 M139.592 80.433 C 139.648 80.477,141.668 82.439,144.082 84.793 L 148.469 89.073 144.388 84.932 C 142.143 82.654,140.122 80.692,139.898 80.572 C 139.673 80.451,139.536 80.389,139.592 80.433 M149.327 89.847 C 149.418 89.987,150.777 91.340,152.348 92.854 L 155.204 95.605 152.248 92.599 C 149.387 89.689,148.979 89.305,149.327 89.847 M158.163 98.469 C 158.886 99.199,159.524 99.796,159.580 99.796 C 159.636 99.796,159.090 99.199,158.367 98.469 C 157.644 97.740,157.007 97.143,156.951 97.143 C 156.894 97.143,157.440 97.740,158.163 98.469 M160.701 104.945 C 160.874 106.246,160.719 106.109,162.274 106.337 C 162.988 106.442,164.855 106.798,166.425 107.128 C 169.658 107.809,169.494 107.828,169.252 106.804 L 169.070 106.035 167.443 105.707 C 166.548 105.527,165.328 105.215,164.730 105.015 C 164.133 104.815,163.262 104.638,162.794 104.622 C 162.291 104.604,161.797 104.446,161.584 104.235 C 160.858 103.514,160.545 103.766,160.701 104.945 M8.265 129.948 L 7.449 130.031 8.564 130.424 C 10.043 130.945,10.288 130.919,9.675 130.306 C 9.395 130.026,9.146 129.811,9.123 129.830 C 9.100 129.849,8.714 129.902,8.265 129.948 M5.357 130.141 C 5.554 130.192,5.875 130.192,6.071 130.141 C 6.268 130.089,6.107 130.047,5.714 130.047 C 5.321 130.047,5.161 130.089,5.357 130.141 M5.918 187.564 C 5.918 244.839,5.934 243.732,5.105 244.042 C 4.732 244.182,5.412 244.586,26.298 256.648 C 28.839 258.115,32.985 260.509,35.510 261.968 C 38.036 263.428,42.260 265.867,44.898 267.389 C 47.536 268.910,50.337 270.530,51.122 270.988 L 52.551 271.820 52.653 207.798 C 52.709 172.585,52.747 143.752,52.737 143.723 C 52.719 143.674,6.185 132.041,6.004 132.041 C 5.957 132.041,5.918 157.026,5.918 187.564 M197.857 154.374 C 188.204 156.978,176.082 160.236,170.918 161.613 C 151.960 166.671,153.515 166.211,152.770 166.971 C 152.402 167.346,152.019 167.804,151.918 167.989 C 151.755 168.288,148.321 167.474,120.728 160.595 C 103.674 156.343,89.701 152.886,89.677 152.912 C 89.653 152.938,89.556 184.215,89.460 222.416 L 89.286 291.873 88.869 292.212 C 88.466 292.539,89.595 293.212,120.066 310.816 C 137.455 320.862,151.767 329.114,151.872 329.153 C 152.228 329.287,153.481 328.960,153.361 328.765 C 153.295 328.659,153.338 328.571,153.457 328.571 C 153.576 328.571,153.673 328.644,153.673 328.732 C 153.673 328.820,153.880 328.907,154.133 328.925 C 154.536 328.953,154.549 328.933,154.235 328.754 C 153.733 328.469,153.786 328.240,154.499 327.599 L 155.120 327.041 155.211 320.306 C 155.521 297.495,155.495 168.845,155.181 168.397 C 155.003 168.142,154.889 167.908,154.928 167.878 C 154.968 167.848,168.638 164.166,185.306 159.696 C 201.974 155.225,215.934 151.477,216.327 151.367 L 217.041 151.167 216.470 150.972 C 216.074 150.836,215.864 150.596,215.782 150.184 C 215.717 149.858,215.606 149.602,215.536 149.615 C 215.466 149.629,207.510 151.770,197.857 154.374 M388.771 178.769 C 389.273 179.474,389.641 179.753,389.466 179.296 C 389.399 179.122,389.273 178.980,389.186 178.980 C 389.098 178.980,388.979 178.796,388.920 178.571 C 388.862 178.347,388.707 178.163,388.577 178.163 C 388.440 178.163,388.523 178.421,388.771 178.769 M391.266 181.837 C 392.211 183.015,394.012 185.249,395.268 186.800 C 396.524 188.351,397.551 189.728,397.550 189.861 C 397.549 190.228,395.111 194.126,384.699 210.408 C 382.940 213.158,380.635 216.809,379.577 218.521 C 374.045 227.471,372.747 229.156,371.976 228.385 C 371.639 228.048,371.343 228.121,371.633 228.469 C 372.400 229.394,373.202 228.898,374.687 226.582 C 375.461 225.375,376.778 223.332,377.613 222.041 C 378.449 220.750,379.662 218.867,380.308 217.857 C 380.954 216.847,381.778 215.561,382.139 215.000 C 382.500 214.439,383.192 213.291,383.676 212.449 C 384.161 211.607,385.216 209.954,386.019 208.776 C 386.823 207.597,387.727 206.219,388.029 205.714 C 388.885 204.281,389.073 203.987,389.200 203.878 C 389.265 203.821,390.011 202.628,390.859 201.224 C 391.707 199.821,393.422 197.112,394.670 195.204 C 397.573 190.766,397.893 190.153,397.642 189.501 C 397.426 188.938,391.838 182.036,390.446 180.612 C 389.952 180.107,390.322 180.658,391.266 181.837 M309.159 201.739 C 309.763 202.026,310.295 202.222,310.341 202.176 C 310.387 202.130,310.031 201.933,309.549 201.738 C 308.153 201.173,307.968 201.174,309.159 201.739 M311.735 202.812 C 311.918 202.981,313.300 203.570,314.082 203.813 C 314.341 203.894,314.340 203.877,314.074 203.703 C 313.606 203.397,311.498 202.594,311.735 202.812 M301.098 211.224 C 301.098 212.515,301.131 213.043,301.171 212.398 C 301.212 211.753,301.212 210.696,301.171 210.051 C 301.131 209.406,301.098 209.934,301.098 211.224 " stroke="none" fill="#e0bdb6" fill-rule="evenodd"></path><path id="path5" d="M299.705 69.410 C 300.205 70.376,300.392 70.045,290.580 85.650 C 285.512 93.711,277.789 106.000,273.417 112.959 C 263.667 128.480,264.736 127.018,263.235 126.882 C 261.956 126.766,261.677 126.992,262.602 127.398 C 262.911 127.533,264.929 129.253,267.088 131.220 C 269.247 133.187,271.638 135.347,272.403 136.020 C 273.167 136.694,278.059 141.233,283.274 146.107 C 306.661 167.968,309.834 170.922,309.983 170.976 C 310.070 171.008,317.286 160.059,326.019 146.646 C 337.793 128.561,342.024 122.217,342.389 122.095 C 342.862 121.937,342.763 121.784,339.961 118.345 C 338.355 116.373,333.781 110.737,329.796 105.820 C 325.811 100.903,319.343 92.922,315.421 88.083 C 311.500 83.245,306.645 77.219,304.632 74.694 C 300.065 68.965,298.740 67.543,299.705 69.410 M155.714 80.918 C 156.219 81.189,156.724 81.410,156.837 81.410 C 156.949 81.410,156.628 81.189,156.122 80.918 C 155.617 80.648,155.112 80.427,155.000 80.427 C 154.888 80.427,155.209 80.648,155.714 80.918 M163.878 84.490 C 164.270 84.705,164.684 84.881,164.796 84.881 C 164.908 84.881,164.679 84.705,164.286 84.490 C 163.893 84.275,163.480 84.099,163.367 84.099 C 163.255 84.099,163.485 84.275,163.878 84.490 M168.532 85.459 C 168.051 86.019,167.916 86.327,168.151 86.327 C 168.270 86.327,168.367 86.219,168.367 86.087 C 168.367 85.956,168.519 85.681,168.705 85.475 C 168.891 85.270,168.997 85.102,168.941 85.102 C 168.885 85.102,168.701 85.263,168.532 85.459 M202.607 100.846 C 202.272 101.196,202.274 101.226,202.644 101.424 C 203.158 101.699,203.475 101.683,202.999 101.406 C 202.705 101.235,202.680 101.132,202.875 100.897 C 203.238 100.460,203.015 100.417,202.607 100.846 M122.041 112.448 C 101.332 116.017,68.110 121.724,48.216 125.132 C 28.321 128.539,12.043 131.374,12.042 131.433 C 12.041 131.491,21.332 133.857,32.688 136.689 C 44.044 139.521,53.370 141.874,53.413 141.917 C 53.456 141.960,53.506 142.185,53.523 142.417 C 53.567 142.999,53.755 142.759,53.766 142.108 C 53.786 140.965,53.427 140.902,72.381 145.392 C 90.962 149.794,91.344 149.902,91.138 150.726 C 91.040 151.117,91.108 151.238,91.477 151.328 C 98.806 153.108,152.520 166.550,152.666 166.641 C 152.781 166.712,153.007 166.660,153.168 166.526 C 153.330 166.392,155.263 165.794,157.464 165.197 C 159.665 164.601,161.509 164.069,161.562 164.017 C 161.614 163.964,161.507 150.995,161.325 135.196 C 161.050 111.426,161.039 106.441,161.261 106.299 C 161.448 106.181,161.374 106.127,161.020 106.123 C 160.740 106.120,160.327 106.081,160.102 106.038 C 159.878 105.995,142.750 108.879,122.041 112.448 M214.286 106.429 C 214.566 106.589,214.888 106.720,215.000 106.720 C 215.112 106.720,214.974 106.589,214.694 106.429 C 214.413 106.268,214.092 106.137,213.980 106.137 C 213.867 106.137,214.005 106.268,214.286 106.429 M163.163 106.645 C 163.837 106.797,164.526 106.914,164.694 106.906 C 165.173 106.882,163.021 106.366,162.449 106.367 C 162.168 106.368,162.490 106.493,163.163 106.645 M215.714 107.041 C 215.995 107.201,216.316 107.332,216.429 107.332 C 216.541 107.332,216.403 107.201,216.122 107.041 C 215.842 106.880,215.520 106.749,215.408 106.749 C 215.296 106.749,215.434 106.880,215.714 107.041 M245.083 119.912 C 245.689 120.188,246.220 120.378,246.262 120.336 C 246.351 120.248,244.395 119.382,244.146 119.400 C 244.054 119.406,244.476 119.637,245.083 119.912 M52.752 174.694 C 52.752 189.454,52.776 195.492,52.806 188.112 C 52.836 180.732,52.836 168.656,52.806 161.276 C 52.776 153.895,52.752 159.934,52.752 174.694 M365.674 151.373 C 365.500 151.572,358.817 161.551,350.823 173.548 L 336.288 195.362 336.869 195.920 C 337.188 196.227,340.801 199.584,344.898 203.379 C 348.995 207.175,354.092 211.897,356.224 213.874 C 358.357 215.851,362.339 219.530,365.074 222.050 C 367.808 224.571,370.517 227.071,371.094 227.607 C 372.897 229.281,372.859 229.323,380.228 217.499 C 385.126 209.639,388.820 203.980,389.017 204.036 C 389.125 204.067,389.158 204.002,389.090 203.891 C 389.022 203.781,390.362 201.506,392.068 198.835 C 396.139 192.465,397.549 190.155,397.550 189.860 C 397.551 189.727,396.151 187.888,394.439 185.774 C 389.296 179.423,389.079 179.142,389.150 178.903 C 389.187 178.777,389.153 178.738,389.075 178.817 C 388.996 178.895,388.423 178.302,387.803 177.498 C 385.752 174.844,374.125 160.539,373.000 159.286 C 372.697 158.949,371.095 156.979,369.439 154.907 C 366.220 150.880,366.157 150.820,365.674 151.373 M185.816 159.540 C 168.867 164.096,154.968 167.848,154.928 167.878 C 154.889 167.908,155.003 168.142,155.181 168.397 C 155.495 168.845,155.521 297.495,155.211 320.306 L 155.120 327.041 154.499 327.599 C 153.771 328.253,153.730 328.478,154.284 328.775 C 154.815 329.059,150.900 331.257,192.449 307.345 C 212.485 295.814,240.357 279.772,254.388 271.697 C 268.418 263.622,284.523 254.357,290.176 251.109 C 295.828 247.861,300.570 245.020,300.713 244.796 C 301.087 244.208,301.357 188.765,300.984 189.138 C 300.847 189.275,300.530 189.388,300.280 189.388 C 299.777 189.388,300.647 190.092,266.039 161.670 C 259.315 156.147,253.791 151.653,253.764 151.682 C 253.737 151.711,253.650 178.643,253.571 211.531 C 253.452 261.232,253.381 271.400,253.152 271.764 C 252.927 272.122,219.625 291.346,218.554 291.737 C 218.376 291.801,218.030 291.690,217.786 291.489 L 217.341 291.122 217.241 245.408 C 217.186 220.265,217.096 194.643,217.041 188.469 C 216.985 182.296,216.940 171.390,216.939 164.235 C 216.939 157.079,216.870 151.232,216.786 151.240 C 216.702 151.249,202.765 154.984,185.816 159.540 M89.482 209.184 C 89.482 214.291,89.508 216.380,89.541 213.827 C 89.573 211.273,89.573 207.094,89.541 204.541 C 89.508 201.987,89.482 204.077,89.482 209.184 M89.277 283.469 C 89.277 287.903,89.304 289.717,89.336 287.500 C 89.369 285.283,89.369 281.656,89.336 279.439 C 89.304 277.222,89.277 279.036,89.277 283.469 " stroke="none" fill="#c8978d" fill-rule="evenodd"></path><path id="path6" d="M128.776 69.381 C 128.776 69.588,133.431 74.197,147.242 87.661 C 151.843 92.147,157.728 97.890,160.320 100.424 C 164.901 104.903,165.063 105.038,166.139 105.262 C 172.139 106.509,199.308 112.041,199.433 112.041 C 199.522 112.041,199.480 111.857,199.340 111.632 C 199.067 111.194,199.246 110.706,199.810 110.356 C 200.001 110.236,206.195 111.488,217.755 113.983 C 227.464 116.078,236.954 118.054,238.843 118.375 C 242.796 119.045,243.644 119.539,242.612 120.571 C 242.478 120.706,242.409 120.819,242.459 120.823 C 242.510 120.826,244.480 121.229,246.837 121.719 C 249.194 122.208,251.142 122.591,251.166 122.571 C 251.189 122.550,250.592 122.274,249.839 121.958 C 248.234 121.284,238.455 116.987,227.347 112.074 C 223.026 110.163,218.893 108.372,218.163 108.096 C 217.434 107.819,215.276 106.886,213.367 106.022 C 211.459 105.157,208.704 103.961,207.245 103.363 C 205.786 102.765,204.041 102.024,203.367 101.716 C 202.694 101.408,201.996 101.128,201.816 101.094 C 200.835 100.908,168.815 87.017,168.410 86.602 C 168.153 86.338,167.839 86.122,167.712 86.122 C 167.489 86.122,163.806 84.512,155.102 80.608 C 148.351 77.580,143.741 75.556,141.122 74.472 C 139.776 73.914,138.260 73.280,137.755 73.064 C 131.532 70.401,130.022 69.741,129.560 69.485 C 128.926 69.132,128.776 69.112,128.776 69.381 M161.020 107.194 C 161.017 110.011,161.648 163.425,161.687 163.695 C 161.728 163.976,180.988 159.080,181.379 158.689 C 181.420 158.648,180.121 152.796,178.493 145.685 C 169.166 104.946,170.009 108.848,170.438 108.419 C 170.713 108.145,171.078 108.242,165.646 107.144 C 160.650 106.135,161.021 106.131,161.020 107.194 M264.073 128.622 C 264.919 129.524,265.102 129.686,265.102 129.532 C 265.102 129.500,264.666 129.063,264.133 128.563 L 263.163 127.653 264.073 128.622 M266.837 131.224 C 267.503 131.898,268.094 132.449,268.150 132.449 C 268.207 132.449,267.707 131.898,267.041 131.224 C 266.374 130.551,265.783 130.000,265.727 130.000 C 265.671 130.000,266.170 130.551,266.837 131.224 M269.694 133.878 C 270.247 134.439,270.745 134.898,270.801 134.898 C 270.857 134.898,270.451 134.439,269.898 133.878 C 269.345 133.316,268.847 132.857,268.791 132.857 C 268.735 132.857,269.141 133.316,269.694 133.878 M271.633 135.876 C 271.633 136.530,271.483 136.581,262.229 139.053 C 251.972 141.793,253.092 141.561,253.216 140.917 C 253.315 140.395,252.981 139.796,252.589 139.796 C 252.469 139.796,252.541 139.920,252.748 140.071 C 253.027 140.275,253.093 140.503,253.004 140.949 C 252.912 141.408,252.978 141.610,253.279 141.798 C 253.650 142.030,253.674 142.322,253.680 146.787 L 253.686 151.531 256.180 153.565 C 257.551 154.684,261.474 157.904,264.898 160.720 C 270.267 165.136,279.261 172.515,295.790 186.063 C 301.947 191.110,301.429 192.054,301.429 175.799 L 301.429 163.117 295.867 157.919 C 284.781 147.557,279.824 142.921,275.959 139.302 C 271.746 135.355,271.633 135.265,271.633 135.876 M217.030 178.265 C 217.029 181.745,217.057 183.197,217.091 181.492 C 217.125 179.788,217.126 176.941,217.092 175.166 C 217.058 173.391,217.030 174.786,217.030 178.265 M336.122 195.370 C 336.122 195.405,336.421 195.704,336.786 196.033 L 337.449 196.633 336.850 195.969 C 336.291 195.351,336.122 195.212,336.122 195.370 M253.559 202.143 C 253.560 205.398,253.588 206.701,253.622 205.039 C 253.656 203.376,253.656 200.713,253.622 199.120 C 253.587 197.528,253.559 198.888,253.559 202.143 M339.184 198.265 C 339.793 198.883,340.338 199.388,340.394 199.388 C 340.450 199.388,339.997 198.883,339.388 198.265 C 338.778 197.648,338.233 197.143,338.177 197.143 C 338.121 197.143,338.574 197.648,339.184 198.265 M301.224 198.031 C 301.224 198.290,303.841 199.492,304.019 199.315 C 304.068 199.265,303.786 199.118,303.391 198.987 C 302.996 198.857,302.347 198.529,301.949 198.259 C 301.474 197.937,301.224 197.858,301.224 198.031 M342.041 200.918 C 342.650 201.536,343.195 202.041,343.251 202.041 C 343.307 202.041,342.855 201.536,342.245 200.918 C 341.635 200.301,341.090 199.796,341.034 199.796 C 340.978 199.796,341.431 200.301,342.041 200.918 M344.592 203.265 C 345.030 203.714,345.435 204.082,345.491 204.082 C 345.547 204.082,345.234 203.714,344.796 203.265 C 344.358 202.816,343.953 202.449,343.897 202.449 C 343.841 202.449,344.153 202.816,344.592 203.265 M347.449 205.918 C 347.887 206.367,348.292 206.735,348.348 206.735 C 348.404 206.735,348.091 206.367,347.653 205.918 C 347.215 205.469,346.810 205.102,346.754 205.102 C 346.698 205.102,347.011 205.469,347.449 205.918 M217.234 254.286 C 217.234 257.821,217.262 259.268,217.296 257.500 C 217.330 255.732,217.330 252.839,217.296 251.071 C 217.262 249.304,217.234 250.750,217.234 254.286 M253.346 268.673 C 253.346 270.245,253.378 270.861,253.417 270.042 C 253.456 269.223,253.456 267.938,253.416 267.185 C 253.377 266.432,253.346 267.102,253.346 268.673 " stroke="none" fill="#ab776c" fill-rule="evenodd"></path><path id="path7" d="M170.444 108.413 C 170.312 108.545,170.204 108.835,170.204 109.057 C 170.204 109.405,181.407 158.643,181.497 158.692 C 181.516 158.702,189.291 156.608,198.776 154.040 C 208.260 151.471,216.250 149.316,216.531 149.252 C 217.276 149.079,269.731 135.061,270.486 134.833 C 270.737 134.756,263.377 127.934,262.586 127.510 C 262.230 127.320,261.801 127.107,261.633 127.037 C 261.464 126.968,260.684 126.644,259.898 126.319 C 259.104 125.989,258.107 125.730,257.653 125.735 C 257.078 125.740,175.643 109.307,171.107 108.270 C 170.874 108.217,170.576 108.281,170.444 108.413 M199.521 110.577 C 199.086 111.059,199.093 111.511,199.541 111.863 C 199.866 112.118,199.872 112.110,199.613 111.780 C 199.233 111.296,199.596 110.473,200.244 110.350 C 200.671 110.268,200.675 110.257,200.287 110.232 C 200.052 110.217,199.707 110.372,199.521 110.577 M242.398 119.183 C 242.766 119.596,242.711 120.354,242.296 120.596 C 242.099 120.710,242.035 120.807,242.153 120.810 C 242.842 120.830,243.097 119.619,242.500 119.167 C 242.196 118.938,242.181 118.940,242.398 119.183 M301.374 180.470 C 301.270 195.485,301.293 197.695,301.558 197.988 C 301.724 198.173,304.469 199.450,307.658 200.826 C 310.991 202.264,313.401 203.414,313.329 203.532 C 313.255 203.652,313.306 203.673,313.451 203.583 C 313.663 203.451,318.065 205.168,318.367 205.500 C 318.423 205.562,318.572 205.631,318.698 205.654 C 318.912 205.694,340.677 215.064,342.653 215.968 C 343.158 216.199,344.811 216.915,346.327 217.560 C 350.865 219.490,358.082 222.604,359.231 223.128 C 359.822 223.397,361.776 224.238,363.571 224.997 C 365.367 225.756,367.480 226.670,368.265 227.028 C 370.355 227.979,370.975 228.213,371.205 228.133 C 371.414 228.060,361.911 219.160,346.940 205.408 C 344.985 203.612,341.738 200.613,339.725 198.742 C 337.535 196.708,335.952 195.384,335.786 195.448 C 335.328 195.624,334.962 195.311,322.913 184.472 C 309.190 172.127,309.715 172.639,309.880 171.760 C 309.995 171.148,305.121 166.166,301.930 163.633 L 301.493 163.286 301.374 180.470 " stroke="none" fill="#915d53" fill-rule="evenodd"></path><path id="path8" d="M152.192 25.273 C 151.883 25.477,151.699 25.720,151.784 25.813 C 151.869 25.907,151.826 25.919,151.688 25.840 C 151.253 25.590,150.680 26.073,149.845 27.394 C 147.019 31.867,135.527 49.468,134.874 50.325 C 134.438 50.897,134.082 51.425,134.082 51.500 C 134.082 51.650,132.367 54.346,130.753 56.735 C 127.714 61.231,126.357 63.354,126.438 63.485 C 126.488 63.565,126.385 63.686,126.210 63.753 C 126.036 63.820,125.944 63.958,126.006 64.059 C 126.069 64.160,125.977 64.298,125.802 64.365 C 125.627 64.432,125.537 64.573,125.602 64.678 C 125.667 64.783,125.535 64.927,125.309 64.999 C 125.083 65.071,124.886 65.192,124.872 65.269 C 124.637 66.527,124.628 67.375,124.848 67.555 C 125.164 67.813,128.586 69.237,128.675 69.148 C 128.727 69.097,128.039 68.746,127.147 68.369 C 125.703 67.759,125.571 67.659,125.948 67.464 C 126.360 67.251,151.975 28.028,152.193 27.276 C 152.337 26.783,150.174 26.205,175.304 33.450 C 194.843 39.082,197.262 39.737,197.431 39.435 C 197.535 39.248,197.818 38.898,198.059 38.657 L 198.498 38.218 195.627 37.398 C 182.402 33.622,165.536 28.723,165.204 28.562 C 164.980 28.454,162.224 27.628,159.082 26.727 C 155.939 25.826,153.230 25.047,153.061 24.996 C 152.893 24.945,152.502 25.070,152.192 25.273 M236.124 50.046 C 235.589 50.927,232.599 49.973,265.612 59.460 C 295.993 68.191,296.164 68.236,296.523 67.566 C 297.096 66.494,298.959 67.123,273.776 59.889 C 262.214 56.569,249.299 52.847,245.074 51.620 C 236.400 49.099,236.671 49.147,236.124 50.046 M159.473 104.065 C 159.420 104.118,159.080 104.195,158.719 104.236 C 157.792 104.343,157.255 104.436,155.510 104.792 C 154.668 104.964,153.566 105.157,153.061 105.222 C 152.556 105.287,151.891 105.382,151.582 105.435 C 151.274 105.487,150.723 105.577,150.358 105.635 C 149.993 105.693,149.418 105.787,149.082 105.844 C 148.745 105.901,148.281 105.971,148.051 105.998 C 147.821 106.026,147.545 106.099,147.439 106.161 C 147.261 106.265,146.354 106.422,144.490 106.671 C 144.097 106.724,143.500 106.812,143.163 106.868 C 142.827 106.923,142.367 106.996,142.143 107.029 C 141.918 107.063,141.574 107.158,141.378 107.240 C 141.181 107.323,140.886 107.339,140.721 107.276 C 140.556 107.212,140.362 107.257,140.289 107.375 C 140.216 107.493,139.935 107.547,139.665 107.496 C 139.395 107.444,139.131 107.470,139.079 107.555 C 139.027 107.639,138.456 107.778,137.809 107.865 C 134.738 108.278,134.642 108.294,134.235 108.465 C 134.038 108.548,133.743 108.563,133.578 108.500 C 133.413 108.437,133.221 108.478,133.150 108.592 C 133.080 108.706,132.824 108.781,132.583 108.757 C 132.341 108.734,131.982 108.784,131.786 108.869 C 131.589 108.954,131.294 108.972,131.129 108.908 C 130.964 108.845,130.782 108.870,130.724 108.965 C 130.633 109.110,129.408 109.338,127.857 109.497 C 127.633 109.520,127.288 109.607,127.092 109.689 C 126.895 109.772,126.600 109.788,126.435 109.725 C 126.270 109.661,126.078 109.703,126.007 109.817 C 125.937 109.931,125.682 110.005,125.440 109.982 C 125.198 109.958,124.839 110.009,124.643 110.094 C 124.446 110.178,124.151 110.196,123.986 110.133 C 123.821 110.070,123.629 110.111,123.558 110.225 C 123.488 110.339,123.233 110.413,122.991 110.390 C 122.749 110.367,122.413 110.399,122.245 110.462 C 121.644 110.686,119.346 111.047,119.234 110.934 C 119.171 110.871,118.996 110.922,118.846 111.046 C 118.696 111.171,118.390 111.225,118.165 111.166 C 117.940 111.107,117.701 111.147,117.634 111.256 C 117.567 111.364,117.314 111.434,117.072 111.410 C 116.831 111.387,116.472 111.437,116.276 111.522 C 116.079 111.607,115.784 111.625,115.619 111.561 C 115.454 111.498,115.262 111.540,115.191 111.654 C 115.121 111.768,114.865 111.842,114.623 111.818 C 114.382 111.795,114.046 111.832,113.878 111.900 C 113.314 112.128,111.015 112.470,110.827 112.353 C 110.724 112.290,110.579 112.337,110.505 112.458 C 110.430 112.578,110.171 112.658,109.929 112.635 C 109.688 112.611,109.329 112.662,109.133 112.747 C 108.936 112.831,108.641 112.849,108.476 112.786 C 108.311 112.723,108.119 112.764,108.048 112.878 C 107.978 112.992,107.722 113.066,107.481 113.043 C 107.239 113.020,106.903 113.056,106.735 113.124 C 105.973 113.432,58.559 121.468,58.237 121.344 C 58.084 121.285,57.959 121.337,57.959 121.458 C 57.959 121.587,57.707 121.642,57.358 121.591 C 57.011 121.540,56.807 121.584,56.875 121.695 C 56.945 121.808,56.692 121.853,56.267 121.803 C 55.866 121.756,55.574 121.775,55.618 121.845 C 55.726 122.021,52.494 122.501,52.243 122.346 C 52.132 122.277,52.041 122.328,52.041 122.460 C 52.041 122.610,51.812 122.666,51.429 122.610 C 51.092 122.560,50.816 122.606,50.816 122.712 C 50.816 122.817,50.546 122.864,50.215 122.815 C 49.868 122.764,49.664 122.809,49.733 122.920 C 49.802 123.032,49.549 123.077,49.124 123.027 C 48.713 122.980,48.446 123.024,48.512 123.129 C 48.577 123.235,48.310 123.279,47.899 123.231 C 47.499 123.185,47.207 123.204,47.250 123.274 C 47.368 123.464,44.116 123.923,43.844 123.755 C 43.692 123.661,43.667 123.701,43.772 123.872 C 43.895 124.070,43.759 124.112,43.205 124.048 C 42.795 124.000,42.528 124.044,42.593 124.150 C 42.658 124.255,42.391 124.300,41.981 124.252 C 41.571 124.204,41.304 124.249,41.369 124.354 C 41.434 124.459,41.167 124.504,40.756 124.456 C 40.346 124.408,40.079 124.453,40.144 124.558 C 40.209 124.663,39.942 124.708,39.532 124.660 C 39.132 124.613,38.839 124.632,38.882 124.701 C 39.004 124.899,35.776 125.368,35.494 125.194 C 35.324 125.089,35.295 125.123,35.404 125.300 C 35.527 125.499,35.392 125.541,34.838 125.476 C 34.428 125.428,34.161 125.473,34.226 125.578 C 34.291 125.684,34.024 125.728,33.614 125.680 C 33.203 125.633,32.936 125.677,33.001 125.783 C 33.067 125.888,32.799 125.932,32.389 125.885 C 31.979 125.837,31.712 125.881,31.777 125.987 C 31.842 126.092,31.575 126.137,31.165 126.089 C 30.764 126.042,30.475 126.065,30.521 126.141 C 30.648 126.345,27.421 126.804,27.128 126.623 C 26.957 126.518,26.928 126.552,27.037 126.729 C 27.160 126.927,27.024 126.970,26.471 126.905 C 26.060 126.857,25.793 126.902,25.858 127.007 C 25.924 127.112,25.657 127.157,25.246 127.109 C 24.836 127.061,24.569 127.106,24.634 127.211 C 24.699 127.317,24.432 127.361,24.022 127.313 C 23.621 127.266,23.331 127.288,23.376 127.361 C 23.490 127.546,19.230 128.225,18.856 128.081 C 18.664 128.008,18.603 128.049,18.691 128.191 C 18.787 128.347,18.603 128.392,18.103 128.334 C 17.693 128.286,17.426 128.330,17.491 128.436 C 17.556 128.541,17.289 128.586,16.879 128.538 C 16.479 128.491,16.188 128.512,16.232 128.584 C 16.347 128.769,10.862 129.653,10.489 129.510 C 10.316 129.443,10.237 129.480,10.308 129.594 C 10.377 129.707,10.202 129.796,9.910 129.796 C 9.267 129.796,9.240 130.077,9.841 130.499 C 10.447 130.923,9.873 130.939,8.885 130.526 C 7.797 130.072,4.694 130.024,4.694 130.461 C 4.694 130.602,4.510 130.833,4.286 130.973 C 3.879 131.227,3.878 131.449,3.878 187.436 C 3.878 248.263,3.808 244.426,4.901 244.140 C 5.987 243.856,5.918 247.662,5.918 187.608 C 5.918 157.046,5.958 132.041,6.006 132.041 C 6.054 132.041,16.409 134.611,29.016 137.753 C 41.624 140.894,52.145 143.513,52.398 143.573 C 52.707 143.646,52.857 143.588,52.857 143.396 C 52.857 143.239,52.995 142.997,53.163 142.857 C 54.118 142.065,54.433 142.159,32.551 136.730 C 13.939 132.112,10.627 131.224,12.001 131.224 C 12.204 131.224,28.712 128.418,48.685 124.989 C 68.658 121.559,86.607 118.480,88.571 118.146 C 90.536 117.812,107.429 114.919,126.112 111.716 C 144.795 108.513,160.258 105.938,160.474 105.995 C 160.823 106.086,160.852 106.015,160.741 105.344 C 160.673 104.931,160.616 104.432,160.614 104.237 C 160.612 103.907,159.759 103.778,159.473 104.065 M90.892 151.471 C 90.824 151.582,90.503 151.633,90.180 151.586 C 89.387 151.469,89.265 152.771,90.051 152.960 C 90.304 153.020,104.284 156.501,121.118 160.695 L 151.727 168.321 152.071 167.754 C 152.261 167.443,152.538 167.139,152.687 167.079 C 153.323 166.824,151.174 166.253,126.020 159.999 C 111.541 156.399,97.741 152.962,95.355 152.362 C 92.713 151.697,90.967 151.349,90.892 151.471 M391.742 199.712 C 391.552 200.002,391.431 200.275,391.474 200.318 C 391.517 200.360,391.713 200.123,391.910 199.790 C 392.350 199.045,392.219 198.984,391.742 199.712 M301.098 215.714 C 301.098 217.005,301.131 217.533,301.171 216.888 C 301.212 216.242,301.212 215.186,301.171 214.541 C 301.131 213.895,301.098 214.423,301.098 215.714 " stroke="none" fill="#edd5d0" fill-rule="evenodd"></path></g></svg>