<svg id="svg" version="1.1" xmlns="http://www.w3.org/2000/svg" xmlns:xlink="http://www.w3.org/1999/xlink" width="400" height="332.44626407369503" viewBox="0, 0, 400,332.44626407369503"><g id="svgg"><path id="path0" d="M270.420 3.460 C 269.879 3.532,270.640 3.594,272.262 3.609 C 277.881 3.664,282.703 5.714,285.502 9.239 C 286.045 9.922,287.034 11.140,287.699 11.945 C 288.365 12.750,289.265 13.955,289.699 14.624 C 290.671 16.118,290.908 16.357,290.270 15.199 C 290.007 14.720,289.301 13.707,288.702 12.947 C 288.104 12.188,287.150 10.950,286.583 10.196 C 282.899 5.299,276.531 2.645,270.420 3.460 M262.455 5.320 C 261.622 5.649,260.839 6.026,260.715 6.157 C 260.565 6.318,260.656 6.311,260.995 6.136 C 261.271 5.993,262.193 5.618,263.042 5.302 C 263.891 4.987,264.447 4.727,264.278 4.725 C 264.110 4.724,263.289 4.991,262.455 5.320 M267.861 5.421 C 266.021 5.827,264.359 6.495,262.575 7.546 C 259.246 9.506,258.133 10.573,251.771 17.911 C 249.664 20.340,247.706 23.586,246.956 25.896 C 246.773 26.459,246.038 28.179,245.324 29.719 C 244.060 32.445,242.986 35.594,242.686 37.462 C 242.604 37.968,242.363 39.120,242.150 40.020 C 241.566 42.491,241.250 47.871,241.591 49.523 L 241.863 50.838 251.177 53.477 C 256.300 54.928,265.005 57.403,270.522 58.976 C 297.195 66.583,296.635 66.431,296.844 66.104 C 298.385 63.698,299.762 54.083,299.290 49.028 C 298.756 43.324,298.161 40.087,297.206 37.708 C 296.858 36.841,296.227 35.026,295.805 33.675 C 293.447 26.128,290.194 19.206,287.280 15.536 C 284.446 11.967,283.603 11.012,282.661 10.303 C 278.806 7.403,278.501 7.214,276.172 6.268 C 273.475 5.172,270.406 4.860,267.861 5.421 M258.751 7.062 C 258.470 7.223,258.332 7.355,258.444 7.355 C 258.557 7.355,258.879 7.223,259.161 7.062 C 259.442 6.902,259.580 6.770,259.468 6.770 C 259.355 6.770,259.033 6.902,258.751 7.062 M197.236 12.834 C 196.166 12.925,193.391 13.520,193.506 13.635 C 193.555 13.684,194.184 13.586,194.904 13.416 C 199.539 12.323,204.560 13.805,208.010 17.283 L 209.162 18.445 210.469 17.462 C 211.187 16.921,212.005 16.312,212.285 16.109 C 212.587 15.890,212.461 15.923,211.975 16.192 C 211.525 16.441,210.733 16.993,210.215 17.419 L 209.272 18.192 208.270 17.163 C 205.364 14.180,201.103 12.509,197.236 12.834 M232.600 12.839 C 232.909 12.885,233.416 12.885,233.726 12.839 C 234.035 12.792,233.782 12.753,233.163 12.753 C 232.544 12.753,232.290 12.792,232.600 12.839 M218.117 13.618 L 217.093 13.891 218.117 13.752 C 218.680 13.676,220.430 13.617,222.006 13.621 C 223.803 13.626,224.567 13.574,224.053 13.480 C 222.741 13.239,219.230 13.321,218.117 13.618 M225.950 13.659 C 226.318 13.705,226.871 13.704,227.179 13.657 C 227.486 13.610,227.185 13.573,226.510 13.574 C 225.834 13.575,225.583 13.614,225.950 13.659 M215.757 14.215 C 214.811 14.564,212.897 15.536,212.897 15.668 C 212.897 15.724,213.283 15.574,213.754 15.333 C 214.226 15.093,215.170 14.681,215.853 14.418 C 216.535 14.155,216.955 13.942,216.786 13.945 C 216.617 13.947,216.154 14.069,215.757 14.215 M189.560 15.148 C 189.166 15.364,188.936 15.541,189.048 15.541 C 189.161 15.541,189.575 15.364,189.969 15.148 C 190.363 14.933,190.594 14.756,190.481 14.756 C 190.368 14.756,189.954 14.933,189.560 15.148 M198.362 15.064 C 193.170 16.968,189.102 21.951,187.487 28.385 C 186.865 30.864,186.370 34.769,186.644 35.029 C 186.810 35.186,197.453 38.287,197.953 38.323 C 198.122 38.335,198.380 38.515,198.527 38.722 C 198.675 38.930,198.888 39.099,199.003 39.099 C 199.117 39.099,199.066 38.955,198.889 38.778 C 198.231 38.120,198.973 37.338,200.033 37.571 C 200.647 37.706,200.683 37.688,200.426 37.379 C 200.045 36.920,200.233 34.214,200.925 30.218 C 201.641 26.077,202.246 24.686,204.316 22.416 C 204.624 22.078,205.051 21.479,205.265 21.085 C 205.479 20.691,206.109 20.062,206.665 19.687 C 207.995 18.792,207.993 18.712,206.609 17.309 C 204.720 15.396,200.552 14.261,198.362 15.064 M292.058 18.725 C 292.361 19.341,292.642 19.811,292.684 19.769 C 292.776 19.677,291.744 17.605,291.606 17.605 C 291.553 17.605,291.756 18.109,292.058 18.725 M179.887 19.052 C 179.465 19.275,179.120 19.503,179.120 19.559 C 179.120 19.650,180.737 18.894,180.945 18.706 C 181.181 18.492,180.566 18.694,179.887 19.052 M172.905 21.305 C 169.283 22.195,164.381 26.258,164.381 28.369 C 164.381 28.968,164.760 28.618,165.521 27.318 C 167.391 24.119,170.269 22.070,174.002 21.278 C 174.959 21.075,175.466 20.909,175.128 20.909 C 174.790 20.910,173.790 21.088,172.905 21.305 M293.756 22.805 C 293.756 22.998,295.211 25.384,295.328 25.384 C 295.434 25.384,295.078 24.726,294.349 23.577 C 294.023 23.063,293.756 22.716,293.756 22.805 M295.741 26.302 C 295.928 26.695,296.118 26.980,296.162 26.936 C 296.256 26.842,295.635 25.589,295.494 25.589 C 295.443 25.589,295.554 25.910,295.741 26.302 M299.512 38.766 C 299.499 39.090,299.800 40.057,300.181 40.916 C 300.563 41.774,300.924 42.615,300.984 42.784 C 301.058 42.991,301.099 43.004,301.110 42.824 C 301.119 42.677,300.837 41.894,300.484 41.084 C 300.131 40.274,299.773 39.289,299.689 38.895 C 299.544 38.218,299.534 38.211,299.512 38.766 M301.155 43.296 C 301.157 43.408,301.288 44.145,301.447 44.933 L 301.735 46.366 301.636 45.208 C 301.553 44.250,301.145 42.623,301.155 43.296 M301.816 48.516 C 301.816 49.698,301.850 50.182,301.891 49.591 C 301.932 48.999,301.932 48.032,301.891 47.441 C 301.850 46.850,301.816 47.334,301.816 48.516 M225.998 47.561 C 225.998 47.614,226.295 47.761,226.659 47.887 C 227.022 48.014,227.229 48.033,227.119 47.930 C 226.886 47.712,225.998 47.419,225.998 47.561 M236.385 47.989 C 236.468 48.421,236.393 48.659,236.110 48.873 C 235.731 49.160,235.731 49.165,236.108 49.097 C 236.640 49.001,236.891 48.244,236.546 47.772 C 236.299 47.434,236.283 47.456,236.385 47.989 M231.116 48.994 C 231.116 49.047,231.413 49.194,231.776 49.320 C 232.140 49.447,232.347 49.466,232.237 49.363 C 232.004 49.145,231.116 48.852,231.116 48.994 M301.842 54.894 C 301.842 57.557,301.771 58.280,301.375 59.649 C 301.118 60.536,300.945 61.300,300.992 61.347 C 301.544 61.899,302.385 54.685,302.007 52.642 C 301.892 52.024,301.842 52.710,301.842 54.894 M328.813 55.008 C 329.122 55.055,329.629 55.055,329.939 55.008 C 330.248 54.962,329.995 54.923,329.376 54.923 C 328.756 54.923,328.503 54.962,328.813 55.008 M332.446 58.158 C 330.814 58.239,328.833 58.257,328.045 58.200 C 324.005 57.904,314.542 60.769,309.232 63.896 C 306.450 65.535,301.357 70.023,301.579 70.641 C 301.611 70.731,305.368 75.403,309.928 81.024 C 314.488 86.646,322.364 96.370,327.430 102.634 L 336.640 114.023 337.479 114.023 C 340.892 114.023,348.071 110.869,352.098 107.600 C 354.835 105.379,355.253 104.996,356.499 103.568 C 357.175 102.794,358.996 100.779,360.547 99.090 C 364.868 94.382,366.513 91.916,367.370 88.865 C 367.547 88.234,367.997 86.750,368.369 85.568 C 369.416 82.243,369.537 81.108,369.316 76.663 C 369.010 70.502,368.177 68.448,364.497 64.789 C 361.051 61.362,357.373 59.609,352.281 58.967 C 351.448 58.862,348.901 58.775,346.619 58.774 C 344.338 58.773,342.403 58.731,342.320 58.682 C 342.238 58.632,340.834 58.486,339.202 58.356 C 337.569 58.227,336.049 58.096,335.824 58.066 C 335.599 58.036,334.079 58.077,332.446 58.158 M300.315 62.797 C 300.054 63.443,299.571 64.455,299.240 65.046 C 298.910 65.637,298.685 66.121,298.742 66.121 C 299.043 66.121,301.066 61.899,300.863 61.695 C 300.823 61.655,300.576 62.151,300.315 62.797 M220.667 69.408 C 220.422 69.752,220.256 70.068,220.297 70.110 C 220.339 70.151,220.580 69.870,220.833 69.484 C 221.404 68.613,221.275 68.555,220.667 69.408 M211.865 82.919 C 211.620 83.263,211.453 83.579,211.495 83.620 C 211.537 83.662,211.778 83.381,212.031 82.995 C 212.601 82.124,212.472 82.065,211.865 82.919 M373.859 84.135 C 373.859 84.754,373.897 85.008,373.944 84.698 C 373.991 84.388,373.991 83.882,373.944 83.572 C 373.897 83.263,373.859 83.516,373.859 84.135 M168.344 84.033 C 168.118 84.624,168.452 85.364,168.939 85.350 C 169.395 85.337,169.395 85.337,168.913 85.144 C 168.520 84.987,168.446 84.834,168.519 84.338 C 168.616 83.679,168.534 83.537,168.344 84.033 M179.324 88.171 C 179.493 88.233,179.816 88.369,180.041 88.473 C 180.444 88.658,180.444 88.656,180.053 88.343 C 179.834 88.168,179.512 88.032,179.337 88.041 C 179.061 88.055,179.059 88.072,179.324 88.171 M181.167 88.990 C 181.336 89.052,181.658 89.188,181.883 89.292 C 182.286 89.477,182.286 89.475,181.895 89.162 C 181.677 88.987,181.354 88.851,181.179 88.860 C 180.903 88.874,180.902 88.891,181.167 88.990 M183.009 89.808 C 183.178 89.871,183.501 90.007,183.726 90.111 C 184.129 90.296,184.129 90.294,183.738 89.981 C 183.519 89.805,183.197 89.670,183.021 89.678 C 182.746 89.692,182.744 89.710,183.009 89.808 M184.852 90.627 C 185.020 90.690,185.343 90.826,185.568 90.929 C 185.971 91.115,185.971 91.113,185.580 90.799 C 185.362 90.624,185.039 90.488,184.864 90.497 C 184.588 90.511,184.586 90.529,184.852 90.627 M186.694 91.446 C 186.863 91.509,187.185 91.645,187.410 91.748 C 187.813 91.934,187.813 91.932,187.422 91.618 C 187.204 91.443,186.882 91.307,186.706 91.316 C 186.430 91.330,186.429 91.348,186.694 91.446 M188.332 92.201 C 188.332 92.246,188.631 92.383,188.997 92.505 C 189.606 92.708,189.628 92.701,189.265 92.423 C 188.899 92.143,188.332 92.008,188.332 92.201 M374.265 96.315 C 374.267 96.878,374.307 97.084,374.354 96.773 C 374.401 96.462,374.399 96.001,374.351 95.749 C 374.302 95.498,374.264 95.752,374.265 96.315 M198.158 96.564 C 198.327 96.626,198.649 96.762,198.874 96.866 C 199.277 97.051,199.277 97.049,198.886 96.736 C 198.668 96.561,198.345 96.425,198.170 96.434 C 197.894 96.448,197.892 96.465,198.158 96.564 M200.000 97.383 C 200.169 97.445,200.491 97.581,200.716 97.685 C 201.119 97.870,201.120 97.868,200.729 97.555 C 200.510 97.380,200.188 97.244,200.012 97.253 C 199.736 97.267,199.735 97.284,200.000 97.383 M201.495 99.202 C 201.811 99.373,202.139 99.702,202.225 99.933 C 202.379 100.349,202.386 100.348,202.889 99.869 C 203.169 99.603,203.219 99.524,203.000 99.693 C 202.690 99.932,202.581 99.942,202.510 99.740 C 202.460 99.597,202.156 99.343,201.834 99.177 C 201.062 98.778,200.755 98.800,201.495 99.202 M199.056 110.867 C 198.967 111.222,199.031 111.504,199.251 111.724 C 199.614 112.086,234.269 119.618,239.091 120.383 L 241.846 120.819 242.213 120.366 C 242.992 119.404,242.422 119.053,239.198 118.513 C 237.736 118.268,228.439 116.329,218.537 114.203 C 199.127 110.036,199.259 110.058,199.056 110.867 M104.197 111.378 C 103.687 111.558,103.687 111.558,104.249 111.488 C 105.058 111.387,105.735 112.009,105.432 112.575 C 105.308 112.808,105.048 113.006,104.855 113.015 C 104.662 113.024,104.605 113.073,104.728 113.124 C 105.122 113.287,105.979 112.841,106.090 112.415 C 106.321 111.531,105.319 110.982,104.197 111.378 M102.866 111.566 L 102.252 111.722 102.803 111.747 C 103.106 111.760,103.410 111.679,103.480 111.566 C 103.550 111.453,103.578 111.372,103.543 111.386 C 103.509 111.399,103.204 111.480,102.866 111.566 M98.817 112.237 C 97.490 112.461,96.447 112.687,96.497 112.737 C 96.603 112.843,101.976 112.012,102.121 111.867 C 102.284 111.704,101.332 111.811,98.817 112.237 M93.552 113.204 C 92.864 113.424,93.607 113.424,94.473 113.204 C 95.025 113.063,95.035 113.047,94.575 113.044 C 94.294 113.042,93.833 113.114,93.552 113.204 M91.926 113.440 C 90.555 113.689,90.440 113.815,91.709 113.679 C 92.329 113.612,92.874 113.524,92.921 113.483 C 93.127 113.303,92.769 113.287,91.926 113.440 M86.387 114.432 L 85.875 114.596 86.438 114.616 C 86.748 114.627,87.001 114.545,87.001 114.432 C 87.001 114.319,86.978 114.236,86.950 114.248 C 86.922 114.259,86.668 114.342,86.387 114.432 M84.761 114.655 C 83.432 114.916,83.263 115.053,84.442 114.914 C 85.005 114.848,85.553 114.712,85.660 114.613 C 85.767 114.513,85.813 114.442,85.763 114.454 C 85.712 114.467,85.261 114.557,84.761 114.655 M78.506 115.759 C 76.861 116.105,77.715 116.117,79.529 115.773 C 80.317 115.624,80.686 115.501,80.348 115.501 C 80.010 115.500,79.181 115.616,78.506 115.759 M72.707 116.726 C 72.107 116.835,71.657 116.965,71.706 117.015 C 71.805 117.113,74.767 116.692,74.906 116.560 C 75.048 116.426,73.867 116.515,72.707 116.726 M68.577 117.503 L 68.066 117.666 68.577 117.666 C 68.859 117.666,69.319 117.593,69.601 117.503 L 70.113 117.339 69.601 117.339 C 69.319 117.339,68.859 117.412,68.577 117.503 M66.633 117.829 L 65.404 118.085 66.633 117.973 C 67.308 117.911,67.899 117.826,67.946 117.784 C 68.171 117.582,67.754 117.596,66.633 117.829 M60.670 118.807 C 59.305 119.052,58.052 119.365,57.887 119.503 C 57.493 119.829,57.553 120.790,57.983 121.061 C 58.443 121.351,58.630 121.112,58.351 120.591 C 57.973 119.885,58.398 119.391,59.519 119.232 C 61.222 118.991,64.196 118.369,63.664 118.365 C 63.383 118.363,62.035 118.562,60.670 118.807 M342.296 122.262 C 341.656 122.715,310.341 170.532,309.849 171.807 C 309.695 172.206,309.694 172.480,309.846 172.728 C 310.333 173.523,335.159 195.701,335.562 195.701 C 336.163 195.701,335.355 196.868,351.254 173.018 C 359.290 160.963,365.986 151.052,366.134 150.995 C 366.302 150.931,367.743 152.554,369.940 155.282 C 371.885 157.697,373.592 159.672,373.732 159.672 C 374.164 159.672,378.132 157.388,379.324 156.453 C 382.535 153.934,383.217 153.219,385.849 149.613 C 389.940 144.007,388.988 136.643,383.855 134.190 C 383.221 133.886,382.564 133.554,382.395 133.450 C 381.398 132.840,381.066 133.072,380.897 134.499 C 380.384 138.831,371.328 147.194,366.272 148.005 L 365.399 148.145 354.808 135.334 C 341.959 119.792,343.505 121.407,342.296 122.262 M382.238 125.486 C 382.238 125.880,382.280 126.041,382.331 125.844 C 382.383 125.647,382.383 125.325,382.331 125.128 C 382.280 124.931,382.238 125.092,382.238 125.486 M384.135 133.496 C 384.923 134.084,387.323 136.488,387.788 137.155 C 388.106 137.610,388.105 137.591,387.778 136.982 C 387.365 136.214,384.731 133.626,383.998 133.270 C 383.673 133.112,383.717 133.184,384.135 133.496 M238.485 143.418 C 223.467 147.481,217.568 149.041,216.684 149.184 C 215.475 149.380,215.114 150.359,216.064 150.867 L 216.570 151.138 216.631 157.503 C 216.665 161.004,216.713 174.324,216.737 187.103 C 216.940 291.788,216.944 292.119,218.056 292.119 C 218.495 292.119,252.382 272.794,252.739 272.340 C 253.063 271.929,253.194 254.760,253.344 193.313 L 253.468 142.101 252.908 141.808 C 252.551 141.621,252.432 141.461,252.581 141.369 C 253.173 141.003,252.589 139.764,251.856 139.831 C 251.764 139.840,245.747 141.454,238.485 143.418 M389.607 142.477 C 389.607 142.871,389.649 143.032,389.701 142.835 C 389.752 142.638,389.752 142.316,389.701 142.119 C 389.649 141.922,389.607 142.083,389.607 142.477 M389.202 149.539 C 389.204 149.990,389.246 150.150,389.295 149.895 C 389.344 149.641,389.342 149.272,389.291 149.076 C 389.240 148.881,389.200 149.089,389.202 149.539 M218.577 159.302 C 218.542 160.913,218.514 159.652,218.514 156.499 C 218.514 153.347,218.542 152.029,218.577 153.570 C 218.611 155.111,218.612 157.691,218.577 159.302 M389.411 152.098 C 389.411 152.605,389.451 152.812,389.500 152.559 C 389.548 152.306,389.548 151.891,389.500 151.638 C 389.451 151.384,389.411 151.592,389.411 152.098 M86.894 183.316 C 86.894 192.886,86.919 196.771,86.950 191.950 C 86.980 187.128,86.980 179.298,86.950 174.550 C 86.919 169.801,86.894 173.746,86.894 183.316 M251.535 182.753 C 251.503 185.540,251.477 183.260,251.477 177.687 C 251.477 172.114,251.503 169.834,251.535 172.620 C 251.567 175.407,251.567 179.967,251.535 182.753 M392.269 170.727 C 392.269 171.121,392.311 171.282,392.362 171.085 C 392.414 170.888,392.414 170.566,392.362 170.368 C 392.311 170.171,392.269 170.333,392.269 170.727 M390.957 174.878 C 390.669 175.466,389.999 176.499,389.469 177.175 L 388.506 178.403 389.432 177.398 C 390.298 176.456,391.747 174.074,391.564 173.891 C 391.519 173.846,391.246 174.290,390.957 174.878 M88.732 195.496 C 88.732 200.281,88.759 202.239,88.792 199.846 C 88.825 197.454,88.825 193.539,88.792 191.146 C 88.759 188.754,88.732 190.711,88.732 195.496 M51.890 216.581 C 51.890 230.711,51.915 236.492,51.945 229.427 C 51.975 222.362,51.975 210.801,51.945 203.736 C 51.915 196.671,51.890 202.451,51.890 216.581 M53.683 236.170 C 53.656 255.557,53.703 271.462,53.787 271.514 C 53.926 271.600,53.925 247.320,53.785 213.613 C 53.756 206.633,53.710 216.783,53.683 236.170 M218.782 233.112 C 218.750 236.123,218.724 233.659,218.724 227.636 C 218.724 221.612,218.750 219.148,218.782 222.160 C 218.814 225.171,218.814 230.100,218.782 233.112 M251.330 252.047 C 251.298 254.777,251.272 252.544,251.272 247.083 C 251.272 241.622,251.298 239.388,251.330 242.119 C 251.363 244.849,251.363 249.317,251.330 252.047 M86.689 258.751 C 86.689 268.378,86.714 272.316,86.745 267.503 C 86.776 262.689,86.776 254.813,86.745 250.000 C 86.714 245.187,86.689 249.125,86.689 258.751 M88.528 271.136 C 88.528 275.977,88.555 277.929,88.587 275.472 C 88.620 273.016,88.620 269.055,88.587 266.670 C 88.555 264.285,88.528 266.295,88.528 271.136 " stroke="none" fill="#e7735b" fill-rule="evenodd"></path><path id="path1" d="M170.042 108.256 C 169.856 108.462,169.703 108.803,169.703 109.014 C 169.703 110.278,181.010 158.778,181.377 159.089 C 181.816 159.461,179.467 160.020,206.346 153.149 C 215.388 150.837,215.658 150.754,215.593 150.296 C 215.504 149.663,215.845 149.296,216.640 149.174 C 217.634 149.021,219.410 148.555,235.882 144.130 C 244.238 141.885,251.320 139.988,251.620 139.914 C 252.019 139.816,252.276 139.892,252.580 140.196 C 252.965 140.580,253.054 140.590,253.775 140.325 C 254.204 140.167,256.213 139.535,258.240 138.919 C 260.266 138.304,263.490 137.325,265.404 136.744 C 267.318 136.163,269.339 135.544,269.894 135.369 L 270.904 135.050 270.201 134.430 C 268.114 132.591,262.443 127.233,262.363 127.024 C 262.308 126.882,262.019 126.816,261.672 126.867 C 261.253 126.929,260.436 126.655,258.941 125.950 C 257.767 125.398,256.300 124.743,255.681 124.495 C 254.816 124.149,171.451 107.881,170.541 107.881 C 170.453 107.881,170.228 108.050,170.042 108.256 M301.330 173.735 C 301.330 179.455,301.270 187.223,301.196 190.997 C 301.036 199.167,300.388 197.928,306.111 200.406 C 308.609 201.488,310.471 202.406,310.400 202.521 C 310.328 202.638,310.379 202.660,310.521 202.572 C 310.808 202.395,313.445 203.460,313.300 203.694 C 313.247 203.781,313.374 203.807,313.582 203.752 C 313.791 203.698,314.090 203.775,314.248 203.925 C 314.405 204.074,314.690 204.222,314.881 204.254 C 315.071 204.286,315.946 204.646,316.825 205.055 C 317.705 205.464,318.516 205.820,318.628 205.845 C 318.801 205.885,320.886 206.786,323.337 207.882 C 323.675 208.033,326.622 209.309,329.887 210.717 C 333.153 212.125,343.740 216.695,353.415 220.874 C 363.090 225.052,371.127 228.444,371.274 228.411 C 371.496 228.362,358.066 215.746,344.647 203.399 C 342.947 201.835,340.389 199.463,338.962 198.128 C 336.849 196.150,336.256 195.701,335.758 195.701 C 335.240 195.701,333.528 194.244,324.534 186.150 C 308.570 171.785,309.661 172.837,309.803 171.951 C 309.922 171.207,309.919 171.204,305.999 167.538 C 303.842 165.520,301.909 163.749,301.704 163.601 C 301.344 163.344,301.331 163.709,301.330 173.735 " stroke="none" fill="#d48c7c" fill-rule="evenodd"></path><path id="path2" d="M298.448 68.934 C 298.091 69.623,295.217 74.189,294.137 75.782 C 293.703 76.423,293.347 76.999,293.347 77.062 C 293.347 77.125,292.506 78.489,291.478 80.093 C 290.450 81.697,289.222 83.654,288.749 84.442 C 288.276 85.230,287.382 86.658,286.761 87.615 C 286.141 88.572,285.128 90.184,284.510 91.198 C 283.891 92.211,282.159 94.974,280.661 97.339 C 279.163 99.703,277.366 102.559,276.668 103.685 C 275.971 104.811,274.717 106.807,273.882 108.122 C 273.047 109.436,271.812 111.406,271.136 112.500 C 270.461 113.593,269.228 115.558,268.398 116.865 C 267.567 118.173,265.929 120.782,264.758 122.662 C 263.587 124.543,262.495 126.217,262.330 126.382 C 262.067 126.644,262.425 127.055,265.253 129.730 C 270.274 134.480,270.839 134.988,271.346 135.208 C 271.608 135.322,273.694 137.175,275.983 139.327 C 279.624 142.752,284.278 147.095,296.315 158.303 C 298.004 159.875,300.032 161.817,300.821 162.618 C 302.437 164.257,309.671 171.004,309.904 171.089 C 309.988 171.120,317.234 160.120,326.008 146.646 C 335.137 132.626,342.114 122.107,342.321 122.053 C 342.920 121.896,342.808 121.725,339.233 117.336 C 337.336 115.007,333.076 109.735,329.765 105.622 C 322.693 96.833,317.049 89.849,307.790 78.430 C 304.080 73.856,300.825 69.721,300.556 69.243 C 299.936 68.139,298.935 67.993,298.448 68.934 M154.964 80.655 C 155.358 80.871,155.773 81.047,155.885 81.047 C 155.998 81.047,155.768 80.871,155.374 80.655 C 154.980 80.439,154.565 80.263,154.452 80.263 C 154.340 80.263,154.570 80.439,154.964 80.655 M163.357 84.340 C 163.751 84.556,164.166 84.732,164.278 84.732 C 164.391 84.732,164.161 84.556,163.767 84.340 C 163.373 84.124,162.958 83.948,162.845 83.948 C 162.733 83.948,162.963 84.124,163.357 84.340 M202.239 100.834 C 201.964 101.165,202.244 101.534,202.764 101.526 C 202.876 101.524,202.802 101.426,202.599 101.308 C 202.307 101.138,202.280 101.032,202.470 100.802 C 202.603 100.643,202.665 100.512,202.609 100.512 C 202.553 100.512,202.386 100.657,202.239 100.834 M155.988 104.403 C 154.243 104.712,143.004 106.637,131.013 108.681 C 119.023 110.724,108.060 112.623,106.653 112.899 C 102.779 113.661,58.926 121.187,58.359 121.187 C 57.963 121.187,12.681 128.854,8.911 129.559 C 7.067 129.904,6.650 131.367,8.291 131.735 C 8.403 131.760,9.831 132.111,11.464 132.513 C 13.096 132.916,22.861 135.325,33.163 137.866 C 43.465 140.408,51.986 142.519,52.098 142.558 C 52.566 142.721,52.709 142.641,52.646 142.251 C 52.554 141.675,52.969 141.249,53.623 141.249 C 54.242 141.249,89.295 149.524,90.020 149.841 C 90.689 150.134,90.658 151.174,89.969 151.535 C 89.505 151.778,92.476 152.550,121.289 159.673 L 153.122 167.543 153.121 248.164 C 153.121 303.514,153.187 328.910,153.333 329.183 C 153.711 329.890,154.332 329.629,159.859 326.431 C 162.852 324.700,167.144 322.226,169.396 320.934 C 171.648 319.642,174.734 317.868,176.254 316.991 C 177.774 316.114,180.814 314.363,183.009 313.100 C 185.205 311.837,188.567 309.901,190.481 308.798 C 192.395 307.695,195.435 305.947,197.236 304.913 C 199.038 303.880,202.078 302.130,203.992 301.025 C 208.480 298.434,213.221 295.704,218.219 292.833 C 226.181 288.259,233.871 283.832,239.304 280.697 C 242.435 278.891,247.178 276.161,253.429 272.568 C 254.836 271.759,257.231 270.379,258.751 269.502 C 263.065 267.012,291.523 250.642,298.498 246.638 C 299.473 246.078,300.407 245.466,300.575 245.277 C 300.839 244.978,300.898 241.289,301.025 217.138 L 301.172 189.343 300.663 189.575 C 299.905 189.920,300.458 190.329,289.441 181.259 C 273.495 168.131,268.221 163.798,260.901 157.813 C 258.874 156.156,256.376 154.105,255.349 153.256 L 253.482 151.712 253.334 211.731 C 253.212 261.528,253.140 271.824,252.911 272.184 C 252.625 272.635,218.446 292.323,217.950 292.323 C 217.795 292.323,217.514 292.153,217.326 291.945 C 217.009 291.594,216.622 222.274,216.586 159.228 L 216.581 151.107 215.985 150.976 C 215.529 150.876,166.307 163.188,161.037 164.720 C 160.709 164.815,160.691 164.773,160.896 164.390 C 161.073 164.060,161.052 157.157,160.810 136.377 C 160.634 121.211,160.490 107.858,160.491 106.704 C 160.491 104.551,160.188 103.734,159.417 103.814 C 159.276 103.828,157.733 104.093,155.988 104.403 M213.920 106.346 C 214.202 106.507,214.524 106.639,214.637 106.639 C 214.749 106.639,214.611 106.507,214.330 106.346 C 214.048 106.185,213.726 106.053,213.613 106.053 C 213.501 106.053,213.639 106.185,213.920 106.346 M215.353 106.960 C 215.635 107.121,215.957 107.253,216.070 107.253 C 216.182 107.253,216.044 107.121,215.763 106.960 C 215.481 106.799,215.159 106.668,215.046 106.668 C 214.933 106.668,215.072 106.799,215.353 106.960 M245.036 119.959 C 245.430 120.175,245.844 120.351,245.957 120.351 C 246.070 120.351,245.839 120.175,245.445 119.959 C 245.051 119.743,244.637 119.567,244.524 119.567 C 244.411 119.567,244.642 119.743,245.036 119.959 M51.865 145.548 C 51.865 146.617,51.899 147.055,51.942 146.520 C 51.984 145.985,51.984 145.110,51.942 144.575 C 51.899 144.040,51.865 144.478,51.865 145.548 M365.981 151.328 C 365.734 151.522,336.670 194.907,336.382 195.512 C 336.350 195.578,343.858 202.621,353.065 211.165 C 362.272 219.708,370.353 227.231,371.023 227.883 C 372.589 229.407,374.207 229.319,374.207 227.710 C 374.207 227.557,374.299 227.431,374.411 227.431 C 374.524 227.431,374.616 227.335,374.616 227.218 C 374.616 227.100,374.711 226.893,374.826 226.757 C 374.942 226.621,375.324 226.049,375.675 225.486 C 376.027 224.923,376.649 223.956,377.059 223.337 C 377.469 222.718,377.924 221.972,378.070 221.679 C 378.217 221.386,378.559 220.888,378.831 220.572 C 379.102 220.256,379.324 219.888,379.324 219.754 C 379.324 219.620,379.500 219.352,379.715 219.157 C 379.931 218.962,380.163 218.580,380.231 218.306 C 380.300 218.033,380.446 217.810,380.557 217.810 C 380.667 217.810,380.757 217.714,380.757 217.597 C 380.757 217.358,381.567 216.151,381.883 215.919 C 381.996 215.836,382.025 215.767,381.947 215.766 C 381.870 215.764,382.722 214.330,383.841 212.580 C 384.960 210.830,385.875 209.310,385.875 209.202 C 385.875 209.095,385.957 209.007,386.057 209.007 C 386.156 209.007,386.391 208.685,386.578 208.291 C 386.765 207.897,387.006 207.574,387.113 207.574 C 387.220 207.574,387.308 207.471,387.308 207.346 C 387.308 207.220,387.631 206.678,388.025 206.141 C 388.419 205.604,388.741 205.011,388.741 204.822 C 388.741 204.634,388.823 204.530,388.922 204.592 C 389.022 204.653,389.159 204.544,389.227 204.348 C 389.295 204.152,389.761 203.347,390.262 202.559 C 390.764 201.771,391.522 200.527,391.946 199.795 C 392.370 199.063,392.882 198.286,393.083 198.068 C 393.285 197.850,393.449 197.557,393.449 197.417 C 393.449 197.278,393.566 197.042,393.708 196.893 C 394.015 196.571,394.767 195.440,394.775 195.287 C 394.778 195.228,394.987 194.957,395.241 194.685 C 395.494 194.413,395.701 194.070,395.701 193.923 C 395.701 193.775,395.779 193.654,395.875 193.654 C 395.970 193.654,396.215 193.285,396.418 192.834 C 396.622 192.383,396.910 191.913,397.059 191.789 C 398.187 190.853,397.821 188.745,396.378 187.861 C 396.231 187.771,396.111 187.597,396.111 187.475 C 396.111 187.353,395.903 187.053,395.650 186.809 C 395.397 186.566,394.913 186.009,394.575 185.573 C 394.237 185.136,393.846 184.664,393.705 184.523 C 393.564 184.382,393.449 184.173,393.449 184.058 C 393.449 183.943,393.322 183.775,393.165 183.685 C 392.931 183.549,391.870 182.325,391.247 181.470 C 391.164 181.355,390.773 180.882,390.379 180.419 C 388.865 178.641,387.860 177.408,377.381 164.483 C 365.732 150.116,366.457 150.952,365.981 151.328 M88.721 221.597 C 88.721 223.286,88.753 223.949,88.791 223.072 C 88.829 222.194,88.829 220.812,88.790 220.001 C 88.752 219.190,88.720 219.908,88.721 221.597 " stroke="none" fill="#f3c3bb" fill-rule="evenodd"></path><path id="path3" d="M150.737 25.630 C 150.256 26.159,146.812 31.339,146.396 32.159 C 146.247 32.452,145.905 32.959,145.636 33.285 C 144.865 34.221,144.781 34.347,143.738 36.138 C 143.408 36.704,142.989 37.291,142.807 37.442 C 142.626 37.593,142.477 37.801,142.477 37.904 C 142.477 38.160,140.156 41.593,139.515 42.284 C 139.230 42.592,138.997 42.925,138.997 43.024 C 138.997 43.278,134.974 49.275,134.162 50.231 C 133.791 50.668,133.505 51.083,133.527 51.152 C 133.549 51.222,133.292 51.695,132.955 52.204 C 132.128 53.455,131.881 53.840,131.468 54.524 C 131.274 54.845,130.286 56.319,129.272 57.799 C 128.258 59.280,126.842 61.412,126.125 62.538 C 125.407 63.664,124.643 64.754,124.427 64.961 C 124.001 65.367,123.946 67.436,124.360 67.466 C 124.473 67.475,125.295 67.822,126.188 68.239 C 127.080 68.656,127.907 68.965,128.024 68.925 C 128.142 68.886,129.346 69.353,130.700 69.962 C 132.055 70.571,133.577 71.234,134.084 71.436 C 134.591 71.637,136.847 72.606,139.099 73.588 C 141.351 74.570,144.529 75.955,146.162 76.665 C 152.568 79.452,154.596 80.337,158.342 81.982 C 168.629 86.501,167.656 86.114,167.656 85.681 C 167.656 85.517,167.771 85.310,167.912 85.220 C 168.053 85.130,168.174 84.826,168.181 84.545 C 168.189 84.231,173.841 75.238,182.783 61.313 C 190.806 48.817,197.387 38.513,197.406 38.415 C 197.425 38.317,196.704 38.026,195.803 37.767 C 193.357 37.063,174.999 31.892,169.601 30.385 C 167.011 29.663,164.616 28.935,164.278 28.768 C 163.662 28.464,161.464 27.808,158.700 27.104 C 157.884 26.896,157.216 26.659,157.216 26.576 C 157.216 26.408,155.823 26.093,155.425 26.171 C 155.284 26.198,155.169 26.114,155.169 25.983 C 155.169 25.846,154.995 25.791,154.759 25.853 C 154.534 25.911,154.350 25.865,154.350 25.750 C 154.350 25.635,154.170 25.588,153.950 25.645 C 153.731 25.703,153.520 25.658,153.483 25.546 C 153.324 25.068,151.188 25.134,150.737 25.630 M235.675 50.000 C 234.683 51.677,203.347 99.672,202.835 100.299 C 202.517 100.689,202.325 101.070,202.408 101.145 C 202.631 101.346,213.242 106.039,213.475 106.039 C 213.585 106.039,217.377 107.697,221.904 109.724 C 226.430 111.750,230.181 113.408,230.239 113.408 C 230.297 113.408,232.614 114.414,235.387 115.643 C 238.161 116.872,241.351 118.261,242.477 118.730 C 244.588 119.609,248.940 121.502,256.859 124.984 C 262.388 127.415,261.666 127.612,264.634 122.857 C 265.874 120.869,267.569 118.173,268.399 116.865 C 269.229 115.558,270.461 113.593,271.136 112.500 C 271.812 111.406,273.047 109.436,273.882 108.122 C 274.717 106.807,275.971 104.811,276.668 103.685 C 277.366 102.559,279.163 99.703,280.661 97.339 C 282.159 94.974,283.891 92.211,284.510 91.198 C 285.128 90.184,286.141 88.572,286.761 87.615 C 287.382 86.658,288.276 85.230,288.749 84.442 C 289.222 83.654,290.450 81.697,291.478 80.093 C 292.506 78.489,293.347 77.125,293.347 77.062 C 293.347 76.999,293.703 76.423,294.137 75.782 C 295.217 74.189,298.091 69.623,298.448 68.934 C 298.608 68.625,298.815 68.373,298.909 68.373 C 299.177 68.373,299.107 67.423,298.822 67.186 C 298.576 66.982,294.066 65.647,290.174 64.626 C 289.161 64.361,283.495 62.755,277.584 61.057 C 256.969 55.138,236.533 49.335,236.302 49.335 C 236.174 49.335,235.892 49.634,235.675 50.000 M4.252 131.372 C 3.890 131.783,3.766 138.948,3.582 170.010 C 3.524 179.693,3.433 190.471,3.378 193.961 C 3.173 207.012,3.050 243.918,3.211 244.137 C 3.303 244.263,7.892 246.970,13.408 250.155 C 18.925 253.339,27.907 258.526,33.367 261.682 C 38.828 264.838,45.184 268.509,47.492 269.841 L 51.689 272.263 51.791 207.811 C 51.877 153.820,51.939 143.304,52.172 143.023 C 52.531 142.590,54.557 143.143,34.493 138.195 C 24.923 135.835,15.205 133.436,12.897 132.864 C 10.589 132.292,8.424 131.775,8.086 131.716 C 7.748 131.656,6.952 131.474,6.316 131.311 C 4.840 130.931,4.634 130.937,4.252 131.372 M88.745 221.833 C 88.593 291.507,88.575 292.934,87.876 292.941 C 87.455 292.945,86.564 292.417,103.582 302.244 C 110.844 306.437,121.807 312.770,127.943 316.316 C 154.244 331.517,151.776 330.168,152.416 329.700 C 152.932 329.323,153.014 316.946,153.078 229.780 L 153.123 167.544 121.341 159.686 C 103.862 155.364,89.411 151.789,89.229 151.742 C 88.925 151.662,88.886 157.360,88.745 221.833 M391.921 199.915 C 391.730 200.207,391.609 200.480,391.653 200.523 C 391.696 200.566,391.892 200.328,392.090 199.994 C 392.531 199.247,392.399 199.186,391.921 199.915 M300.977 214.739 C 300.977 215.246,301.017 215.453,301.066 215.200 C 301.114 214.946,301.114 214.532,301.066 214.278 C 301.017 214.025,300.977 214.232,300.977 214.739 " stroke="none" fill="#fbdbd3" fill-rule="evenodd"></path><path id="path4" d="M128.149 69.243 C 128.151 69.579,143.895 85.169,154.147 94.985 C 156.675 97.405,160.173 100.788,161.920 102.503 L 165.097 105.619 164.074 105.340 C 163.511 105.187,162.656 104.880,162.173 104.659 C 161.080 104.157,160.322 104.252,160.418 104.880 C 160.455 105.123,160.631 118.588,160.808 134.800 C 160.985 151.013,161.205 164.354,161.297 164.447 C 161.389 164.540,165.999 163.458,171.542 162.042 C 177.085 160.626,181.667 159.468,181.723 159.468 C 181.780 159.468,181.635 159.307,181.402 159.110 C 181.005 158.774,169.703 110.348,169.703 108.981 C 169.703 107.585,166.370 107.042,212.423 115.931 C 235.481 120.381,254.366 124.003,254.389 123.980 C 254.413 123.956,252.617 123.169,250.399 122.231 C 246.106 120.415,238.002 116.859,224.619 110.922 C 220.089 108.912,216.301 107.267,216.200 107.267 C 216.099 107.267,213.726 106.247,210.925 105.001 C 208.125 103.754,204.867 102.366,203.685 101.916 C 199.057 100.154,168.343 86.930,167.861 86.493 C 167.579 86.237,166.796 85.793,166.121 85.505 C 165.445 85.217,162.887 84.100,160.437 83.023 C 157.986 81.946,155.934 81.064,155.876 81.064 C 155.819 81.064,155.137 80.751,154.362 80.368 C 153.586 79.984,151.585 79.070,149.915 78.335 C 142.955 75.274,141.501 74.641,140.430 74.202 C 139.811 73.949,137.462 72.935,135.210 71.950 C 128.139 68.855,128.147 68.858,128.149 69.243 M217.503 113.933 C 227.185 116.021,236.658 117.996,238.554 118.322 C 242.220 118.952,242.635 119.119,242.538 119.921 C 242.425 120.859,242.042 120.899,238.552 120.336 C 233.650 119.544,199.549 112.169,199.130 111.810 C 198.527 111.293,198.893 110.130,199.656 110.135 C 199.789 110.135,207.820 111.845,217.503 113.933 M262.436 127.188 C 262.436 127.223,262.735 127.523,263.101 127.853 L 263.767 128.454 263.165 127.789 C 262.605 127.169,262.436 127.030,262.436 127.188 M266.325 130.911 C 266.707 131.305,267.066 131.627,267.122 131.627 C 267.179 131.627,266.912 131.305,266.530 130.911 C 266.148 130.517,265.790 130.194,265.733 130.194 C 265.677 130.194,265.944 130.517,266.325 130.911 M268.066 135.949 C 266.602 136.399,263.930 137.214,262.129 137.761 C 260.328 138.308,257.633 139.132,256.140 139.593 C 254.648 140.053,253.379 140.430,253.321 140.430 C 252.992 140.430,252.834 141.502,253.121 141.789 C 253.510 142.178,253.498 141.973,253.435 147.198 L 253.382 151.612 256.220 153.968 C 257.781 155.264,260.302 157.337,261.822 158.576 C 266.801 162.632,272.929 167.665,289.441 181.259 C 301.052 190.818,300.573 190.501,301.141 189.009 C 301.345 188.472,301.410 163.598,301.208 163.072 C 301.100 162.790,299.820 161.580,286.694 149.349 C 283.091 145.992,278.946 142.122,277.482 140.748 C 276.018 139.375,274.063 137.544,273.137 136.679 C 271.181 134.854,271.485 134.898,268.066 135.949 M51.868 149.949 C 51.868 151.187,51.902 151.668,51.943 151.016 C 51.983 150.365,51.983 149.351,51.942 148.764 C 51.901 148.177,51.867 148.710,51.868 149.949 M216.667 185.773 C 216.667 188.025,216.697 188.974,216.734 187.882 C 216.771 186.790,216.771 184.948,216.734 183.788 C 216.698 182.628,216.668 183.521,216.667 185.773 M301.126 198.257 C 301.126 198.628,301.615 198.863,307.165 201.156 C 309.191 201.994,311.011 202.768,311.208 202.877 C 311.725 203.162,314.280 204.110,314.348 204.042 C 314.379 204.011,311.548 202.752,308.056 201.245 C 304.565 199.738,301.577 198.375,301.417 198.215 C 301.165 197.963,301.126 197.969,301.126 198.257 M253.309 209.212 C 253.309 211.295,253.340 212.147,253.377 211.105 C 253.414 210.064,253.414 208.360,253.377 207.318 C 253.340 206.277,253.309 207.129,253.309 209.212 M88.690 217.912 C 88.693 218.362,88.735 218.522,88.783 218.268 C 88.832 218.013,88.831 217.645,88.779 217.449 C 88.728 217.253,88.688 217.462,88.690 217.912 M216.872 261.924 C 216.872 264.176,216.902 265.125,216.939 264.033 C 216.975 262.942,216.975 261.099,216.939 259.939 C 216.902 258.779,216.872 259.672,216.872 261.924 " stroke="none" fill="#e4aca3" fill-rule="evenodd"></path><path id="path5" d="M253.485 143.501 C 253.485 144.007,253.525 144.214,253.573 143.961 C 253.622 143.708,253.622 143.293,253.573 143.040 C 253.525 142.787,253.485 142.994,253.485 143.501 M51.877 157.421 C 51.877 159.616,51.907 160.514,51.944 159.417 C 51.981 158.319,51.981 156.523,51.944 155.425 C 51.907 154.327,51.877 155.225,51.877 157.421 M216.669 177.380 C 216.669 179.857,216.698 180.842,216.734 179.569 C 216.770 178.296,216.770 176.270,216.734 175.065 C 216.698 173.861,216.668 174.903,216.669 177.380 M253.310 201.535 C 253.310 203.787,253.340 204.736,253.377 203.644 C 253.413 202.553,253.414 200.710,253.377 199.550 C 253.340 198.390,253.310 199.284,253.310 201.535 M88.706 215.455 C 88.707 216.244,88.744 216.541,88.788 216.116 C 88.832 215.691,88.832 215.047,88.786 214.683 C 88.741 214.320,88.705 214.667,88.706 215.455 M216.873 253.634 C 216.873 256.054,216.903 257.045,216.939 255.834 C 216.975 254.624,216.975 252.643,216.939 251.433 C 216.903 250.223,216.873 251.213,216.873 253.634 M253.097 269.396 C 253.097 270.691,253.130 271.221,253.171 270.573 C 253.211 269.926,253.211 268.866,253.171 268.219 C 253.130 267.572,253.097 268.101,253.097 269.396 M88.495 290.890 C 88.495 291.510,88.534 291.763,88.581 291.453 C 88.628 291.144,88.628 290.637,88.581 290.328 C 88.534 290.018,88.495 290.271,88.495 290.890 " stroke="none" fill="#e79a89" fill-rule="evenodd"></path><path id="path6" d="M270.624 3.613 C 266.572 4.128,263.626 4.955,260.184 6.544 C 258.777 7.194,256.882 7.922,255.974 8.162 C 255.066 8.401,252.993 9.018,251.368 9.532 C 244.365 11.747,240.019 12.628,235.312 12.786 C 233.849 12.835,231.684 13.036,230.502 13.233 C 228.908 13.498,227.055 13.597,223.337 13.615 C 216.865 13.647,214.612 14.302,210.670 17.296 L 209.160 18.443 208.009 17.282 C 203.410 12.645,197.270 11.854,190.276 14.998 C 189.150 15.504,186.940 16.397,185.363 16.982 C 183.787 17.568,181.714 18.418,180.757 18.871 C 177.628 20.354,176.287 20.849,174.487 21.186 C 170.459 21.941,167.470 23.985,165.521 27.318 C 165.089 28.055,164.633 28.665,164.507 28.673 C 164.083 28.699,168.772 30.074,184.284 34.473 C 185.604 34.848,186.641 35.085,186.589 35.001 C 186.376 34.656,186.920 30.648,187.487 28.385 C 190.311 17.129,200.567 11.188,206.609 17.309 C 207.993 18.712,207.995 18.792,206.665 19.687 C 206.109 20.062,205.479 20.691,205.265 21.085 C 205.051 21.479,204.624 22.078,204.316 22.416 C 202.246 24.686,201.641 26.077,200.925 30.218 C 200.233 34.214,200.045 36.920,200.426 37.379 C 200.683 37.688,200.647 37.706,200.033 37.571 C 198.973 37.338,198.231 38.120,198.889 38.778 C 199.066 38.955,199.117 39.099,199.003 39.099 C 198.888 39.099,198.670 38.921,198.517 38.702 C 198.226 38.287,197.402 38.262,197.494 38.672 C 197.523 38.800,197.409 38.959,197.240 39.024 C 197.070 39.089,196.974 39.211,197.026 39.294 C 197.078 39.378,196.939 39.641,196.718 39.879 C 196.496 40.116,196.315 40.406,196.315 40.524 C 196.315 40.641,196.218 40.737,196.098 40.737 C 195.979 40.737,195.935 40.823,196.000 40.929 C 196.066 41.035,195.986 41.196,195.822 41.287 C 195.659 41.379,195.511 41.546,195.492 41.658 C 195.436 42.008,194.803 42.989,194.633 42.989 C 194.545 42.989,194.473 43.127,194.473 43.296 C 194.473 43.465,194.375 43.603,194.256 43.603 C 194.137 43.603,194.093 43.689,194.158 43.795 C 194.223 43.901,194.114 44.078,193.914 44.190 C 193.715 44.302,193.566 44.468,193.584 44.561 C 193.630 44.800,192.984 45.855,192.791 45.855 C 192.703 45.855,192.631 45.993,192.631 46.162 C 192.631 46.331,192.533 46.469,192.414 46.469 C 192.294 46.469,192.254 46.562,192.324 46.675 C 192.394 46.788,192.308 46.936,192.133 47.003 C 191.958 47.071,191.856 47.194,191.908 47.278 C 191.960 47.362,191.821 47.625,191.600 47.862 C 191.379 48.100,191.198 48.390,191.198 48.507 C 191.198 48.625,191.100 48.721,190.981 48.721 C 190.862 48.721,190.821 48.813,190.891 48.927 C 190.961 49.040,190.875 49.188,190.700 49.255 C 190.525 49.323,190.432 49.461,190.495 49.562 C 190.558 49.664,190.466 49.802,190.291 49.869 C 190.115 49.937,190.014 50.060,190.066 50.144 C 190.117 50.228,189.979 50.491,189.758 50.728 C 189.536 50.966,189.355 51.256,189.355 51.373 C 189.355 51.491,189.258 51.586,189.138 51.586 C 189.019 51.586,188.975 51.673,189.040 51.779 C 189.106 51.884,188.996 52.062,188.797 52.174 C 188.597 52.285,188.476 52.406,188.527 52.442 C 188.661 52.537,187.865 53.838,187.673 53.838 C 187.585 53.838,187.513 53.976,187.513 54.145 C 187.513 54.314,187.415 54.452,187.296 54.452 C 187.177 54.452,187.133 54.539,187.198 54.645 C 187.263 54.750,187.183 54.911,187.020 55.003 C 186.857 55.094,186.735 55.215,186.750 55.271 C 186.799 55.454,185.997 56.704,185.831 56.704 C 185.743 56.704,185.670 56.842,185.670 57.011 C 185.670 57.180,185.573 57.318,185.454 57.318 C 185.334 57.318,185.294 57.411,185.364 57.524 C 185.434 57.638,185.348 57.786,185.173 57.853 C 184.997 57.920,184.896 58.044,184.948 58.128 C 185.000 58.211,184.861 58.474,184.640 58.712 C 184.419 58.949,184.237 59.240,184.237 59.357 C 184.237 59.474,184.140 59.570,184.021 59.570 C 183.901 59.570,183.861 59.663,183.931 59.776 C 184.001 59.890,183.915 60.037,183.740 60.105 C 183.564 60.172,183.472 60.310,183.535 60.412 C 183.598 60.513,183.506 60.652,183.330 60.719 C 183.155 60.786,183.054 60.910,183.106 60.994 C 183.157 61.077,183.019 61.340,182.797 61.578 C 182.576 61.815,182.395 62.105,182.395 62.223 C 182.395 62.340,182.298 62.436,182.178 62.436 C 182.059 62.436,182.015 62.522,182.080 62.628 C 182.146 62.734,182.036 62.912,181.836 63.023 C 181.637 63.135,181.489 63.302,181.506 63.394 C 181.553 63.633,180.906 64.688,180.713 64.688 C 180.625 64.688,180.553 64.826,180.553 64.995 C 180.553 65.164,180.455 65.302,180.336 65.302 C 180.217 65.302,180.173 65.388,180.238 65.494 C 180.303 65.600,180.208 65.769,180.027 65.871 C 179.846 65.972,179.724 66.093,179.757 66.139 C 179.852 66.272,179.049 67.554,178.871 67.554 C 178.783 67.554,178.710 67.692,178.710 67.861 C 178.710 68.030,178.613 68.168,178.494 68.168 C 178.374 68.168,178.334 68.261,178.404 68.374 C 178.474 68.487,178.388 68.635,178.213 68.703 C 178.037 68.770,177.936 68.893,177.988 68.977 C 178.040 69.061,177.901 69.324,177.680 69.561 C 177.458 69.799,177.277 70.089,177.277 70.206 C 177.277 70.324,177.180 70.420,177.061 70.420 C 176.941 70.420,176.901 70.512,176.971 70.626 C 177.041 70.739,176.955 70.887,176.780 70.954 C 176.604 71.022,176.512 71.160,176.575 71.261 C 176.638 71.363,176.546 71.501,176.370 71.568 C 176.195 71.636,176.094 71.759,176.146 71.843 C 176.197 71.927,176.059 72.190,175.837 72.427 C 175.616 72.665,175.435 72.955,175.435 73.072 C 175.435 73.190,175.337 73.286,175.218 73.286 C 175.099 73.286,175.055 73.372,175.120 73.478 C 175.185 73.583,175.091 73.753,174.909 73.854 C 174.728 73.956,174.592 74.102,174.606 74.179 C 174.648 74.398,173.933 75.537,173.753 75.537 C 173.665 75.537,173.593 75.676,173.593 75.844 C 173.593 76.013,173.495 76.151,173.376 76.151 C 173.257 76.151,173.212 76.238,173.278 76.344 C 173.343 76.449,173.248 76.619,173.067 76.720 C 172.885 76.822,172.749 76.968,172.764 77.045 C 172.806 77.264,172.090 78.403,171.911 78.403 C 171.823 78.403,171.750 78.541,171.750 78.710 C 171.750 78.879,171.653 79.017,171.533 79.017 C 171.414 79.017,171.374 79.110,171.444 79.224 C 171.514 79.337,171.428 79.485,171.253 79.552 C 171.077 79.619,170.976 79.743,171.028 79.827 C 171.080 79.910,170.941 80.173,170.720 80.411 C 170.498 80.648,170.317 80.939,170.317 81.056 C 170.317 81.173,170.220 81.269,170.101 81.269 C 169.981 81.269,169.941 81.362,170.011 81.475 C 170.081 81.589,169.995 81.737,169.820 81.804 C 169.644 81.871,169.552 82.009,169.615 82.111 C 169.678 82.213,169.586 82.351,169.410 82.418 C 169.235 82.485,169.134 82.609,169.185 82.693 C 169.237 82.776,169.122 83.020,168.928 83.234 C 168.735 83.448,168.547 83.900,168.509 84.237 C 168.472 84.575,168.311 85.056,168.151 85.305 C 167.312 86.615,165.566 85.713,185.301 94.168 C 201.415 101.071,201.939 101.264,202.431 100.477 C 202.575 100.247,202.593 100.120,202.472 100.195 C 202.351 100.270,202.252 100.186,202.252 100.009 C 202.252 99.832,201.952 99.504,201.586 99.281 C 201.221 99.058,200.996 98.875,201.088 98.875 C 201.377 98.874,202.134 99.323,202.520 99.725 C 202.880 100.101,203.401 100.062,203.163 99.677 C 203.098 99.572,203.189 99.430,203.365 99.363 C 203.541 99.295,203.685 99.111,203.685 98.955 C 203.685 98.798,203.782 98.669,203.902 98.669 C 204.021 98.669,204.061 98.577,203.991 98.463 C 203.921 98.350,204.007 98.202,204.182 98.135 C 204.358 98.067,204.454 97.936,204.396 97.842 C 204.338 97.748,204.453 97.576,204.653 97.460 C 204.852 97.344,204.942 97.246,204.852 97.243 C 204.668 97.236,205.922 95.330,206.181 95.223 C 206.272 95.186,206.346 95.025,206.346 94.865 C 206.346 94.706,206.438 94.575,206.551 94.575 C 206.663 94.575,206.755 94.437,206.755 94.268 C 206.755 94.099,206.853 93.961,206.972 93.961 C 207.091 93.961,207.132 93.868,207.062 93.755 C 206.991 93.642,207.078 93.494,207.253 93.426 C 207.428 93.359,207.524 93.227,207.466 93.133 C 207.408 93.040,207.509 92.880,207.691 92.778 C 207.872 92.677,207.993 92.556,207.960 92.510 C 207.865 92.377,208.668 91.095,208.847 91.095 C 208.935 91.095,209.007 90.957,209.007 90.788 C 209.007 90.619,209.099 90.481,209.212 90.481 C 209.324 90.481,209.417 90.343,209.417 90.174 C 209.417 90.005,209.509 89.867,209.621 89.867 C 209.734 89.867,209.826 89.729,209.826 89.560 C 209.826 89.391,209.924 89.253,210.043 89.253 C 210.162 89.253,210.202 89.160,210.132 89.047 C 210.062 88.933,210.148 88.785,210.324 88.718 C 210.499 88.651,210.595 88.519,210.537 88.425 C 210.479 88.331,210.565 88.180,210.728 88.088 C 210.892 87.997,211.013 87.876,210.998 87.820 C 210.949 87.637,211.752 86.387,211.917 86.387 C 212.006 86.387,212.078 86.249,212.078 86.080 C 212.078 85.911,212.170 85.773,212.282 85.773 C 212.395 85.773,212.487 85.635,212.487 85.466 C 212.487 85.297,212.585 85.159,212.704 85.159 C 212.823 85.159,212.863 85.066,212.793 84.952 C 212.723 84.839,212.809 84.691,212.985 84.624 C 213.160 84.557,213.256 84.425,213.198 84.331 C 213.140 84.237,213.256 84.065,213.455 83.949 C 213.655 83.833,213.744 83.735,213.654 83.732 C 213.471 83.725,214.725 81.819,214.983 81.713 C 215.074 81.675,215.148 81.514,215.148 81.354 C 215.148 81.195,215.241 81.064,215.353 81.064 C 215.466 81.064,215.558 80.926,215.558 80.757 C 215.558 80.589,215.655 80.450,215.775 80.450 C 215.894 80.450,215.934 80.358,215.864 80.244 C 215.794 80.131,215.880 79.983,216.055 79.916 C 216.231 79.848,216.327 79.717,216.269 79.623 C 216.211 79.529,216.297 79.377,216.460 79.286 C 216.623 79.195,216.745 79.074,216.730 79.017 C 216.681 78.835,217.483 77.584,217.649 77.584 C 217.737 77.584,217.810 77.446,217.810 77.277 C 217.810 77.108,217.902 76.970,218.014 76.970 C 218.127 76.970,218.219 76.832,218.219 76.663 C 218.219 76.494,218.311 76.356,218.424 76.356 C 218.536 76.356,218.628 76.218,218.628 76.049 C 218.628 75.880,218.726 75.742,218.845 75.742 C 218.964 75.742,219.005 75.649,218.935 75.536 C 218.865 75.423,218.951 75.275,219.126 75.207 C 219.301 75.140,219.397 75.008,219.339 74.914 C 219.281 74.820,219.368 74.669,219.531 74.578 C 219.694 74.486,219.815 74.365,219.800 74.309 C 219.752 74.127,220.554 72.876,220.720 72.876 C 220.808 72.876,220.880 72.738,220.880 72.569 C 220.880 72.400,220.972 72.262,221.085 72.262 C 221.198 72.262,221.290 72.124,221.290 71.955 C 221.290 71.786,221.387 71.648,221.506 71.648 C 221.626 71.648,221.666 71.555,221.596 71.442 C 221.526 71.328,221.612 71.181,221.787 71.113 C 221.963 71.046,222.059 70.914,222.001 70.820 C 221.943 70.726,222.058 70.555,222.258 70.438 C 222.457 70.322,222.547 70.225,222.457 70.221 C 222.273 70.214,223.527 68.308,223.785 68.202 C 223.876 68.164,223.951 68.003,223.951 67.844 C 223.951 67.684,224.048 67.554,224.168 67.554 C 224.287 67.554,224.327 67.461,224.257 67.348 C 224.187 67.234,224.273 67.086,224.448 67.019 C 224.624 66.952,224.716 66.814,224.653 66.712 C 224.590 66.610,224.683 66.472,224.858 66.405 C 225.033 66.338,225.129 66.206,225.071 66.112 C 225.013 66.018,225.114 65.858,225.296 65.757 C 225.477 65.655,225.598 65.534,225.565 65.488 C 225.470 65.355,226.273 64.074,226.452 64.074 C 226.540 64.074,226.612 63.936,226.612 63.767 C 226.612 63.598,226.704 63.460,226.817 63.460 C 226.929 63.460,227.021 63.321,227.021 63.153 C 227.021 62.984,227.114 62.845,227.226 62.845 C 227.339 62.845,227.431 62.707,227.431 62.538 C 227.431 62.369,227.528 62.231,227.648 62.231 C 227.767 62.231,227.807 62.139,227.737 62.025 C 227.667 61.912,227.753 61.764,227.929 61.697 C 228.104 61.629,228.200 61.497,228.142 61.404 C 228.084 61.310,228.170 61.158,228.333 61.067 C 228.497 60.975,228.618 60.855,228.603 60.798 C 228.554 60.616,229.357 59.365,229.522 59.365 C 229.610 59.365,229.683 59.227,229.683 59.058 C 229.683 58.889,229.775 58.751,229.887 58.751 C 230.000 58.751,230.092 58.613,230.092 58.444 C 230.092 58.275,230.190 58.137,230.309 58.137 C 230.428 58.137,230.468 58.044,230.398 57.931 C 230.328 57.818,230.414 57.670,230.590 57.602 C 230.765 57.535,230.861 57.403,230.803 57.309 C 230.745 57.216,230.861 57.044,231.060 56.928 C 231.260 56.812,231.349 56.714,231.259 56.710 C 231.076 56.703,232.330 54.798,232.588 54.691 C 232.679 54.654,232.753 54.492,232.753 54.333 C 232.753 54.173,232.851 54.043,232.970 54.043 C 233.089 54.043,233.130 53.950,233.059 53.837 C 232.989 53.723,233.076 53.576,233.251 53.508 C 233.426 53.441,233.518 53.303,233.456 53.201 C 233.393 53.100,233.485 52.961,233.660 52.894 C 233.836 52.827,233.932 52.695,233.874 52.601 C 233.816 52.507,233.917 52.347,234.098 52.246 C 234.279 52.144,234.401 52.024,234.368 51.978 C 234.272 51.845,235.076 50.563,235.254 50.563 C 235.342 50.563,235.415 50.425,235.415 50.256 C 235.415 50.087,235.504 49.949,235.613 49.949 C 235.722 49.949,235.758 49.811,235.693 49.642 C 235.628 49.473,235.683 49.335,235.814 49.335 C 235.945 49.335,236.002 49.252,235.940 49.151 C 235.877 49.051,235.974 48.911,236.155 48.842 C 236.392 48.751,236.457 48.536,236.389 48.072 C 236.308 47.520,236.331 47.478,236.550 47.777 C 236.823 48.152,236.730 48.847,236.376 49.066 C 236.257 49.139,237.391 49.551,238.896 49.979 C 242.092 50.890,241.841 50.957,241.546 49.263 C 241.251 47.567,241.588 42.413,242.152 40.020 C 242.364 39.120,242.604 37.968,242.686 37.462 C 242.986 35.594,244.060 32.445,245.324 29.719 C 246.038 28.179,246.773 26.459,246.956 25.896 C 247.706 23.586,249.664 20.340,251.771 17.911 C 258.128 10.579,259.219 9.532,262.587 7.529 C 268.371 4.089,274.724 4.442,280.251 8.512 C 283.849 11.161,283.640 10.952,287.280 15.536 C 290.194 19.206,293.447 26.128,295.805 33.675 C 296.227 35.026,296.858 36.841,297.206 37.708 C 298.161 40.087,298.756 43.324,299.290 49.028 C 299.705 53.476,298.720 61.525,297.335 64.985 C 297.034 65.738,296.819 66.380,296.858 66.412 C 297.682 67.080,298.205 66.884,298.920 65.639 C 300.923 62.149,301.822 58.999,301.819 55.476 C 301.813 46.564,301.608 44.299,300.589 41.874 C 299.644 39.624,299.529 39.219,299.280 37.257 C 298.830 33.709,296.858 28.087,294.961 24.940 C 294.395 24.002,293.612 22.405,293.220 21.392 C 291.960 18.136,289.894 14.600,287.699 11.945 C 287.034 11.140,286.045 9.922,285.502 9.239 C 282.533 5.501,275.800 2.955,270.624 3.613 M227.119 47.930 C 227.229 48.033,227.022 48.014,226.659 47.887 C 226.295 47.761,225.998 47.614,225.998 47.561 C 225.998 47.419,226.886 47.712,227.119 47.930 M232.237 49.363 C 232.347 49.466,232.140 49.447,231.776 49.320 C 231.413 49.194,231.116 49.047,231.116 48.994 C 231.116 48.852,232.004 49.145,232.237 49.363 M337.140 54.528 C 337.076 54.596,334.957 54.749,332.432 54.867 C 319.727 55.460,310.009 59.449,303.179 66.875 C 301.002 69.242,300.817 69.535,301.129 70.118 L 301.398 70.620 302.926 68.975 C 308.343 63.144,321.077 57.682,328.045 58.201 C 328.833 58.260,330.860 58.247,332.549 58.171 C 335.551 58.038,336.831 58.094,341.294 58.557 C 342.500 58.682,345.121 58.782,347.117 58.778 C 351.009 58.771,353.114 58.962,354.942 59.489 C 358.210 60.430,358.963 60.712,360.529 61.586 C 362.879 62.897,366.447 66.425,367.496 68.475 C 369.748 72.874,370.113 80.030,368.369 85.568 C 367.997 86.750,367.547 88.234,367.370 88.865 C 366.513 91.916,364.868 94.382,360.547 99.090 C 358.996 100.779,357.175 102.794,356.499 103.568 C 355.253 104.996,354.835 105.379,352.098 107.600 C 348.200 110.764,342.137 113.506,337.985 113.982 L 336.746 114.125 339.708 117.858 C 341.612 120.257,342.887 121.684,343.276 121.850 C 343.684 122.024,347.393 126.357,354.641 135.127 L 365.400 148.145 366.272 148.005 C 371.328 147.194,380.384 138.831,380.897 134.499 C 381.038 133.312,381.423 132.847,381.952 133.227 C 382.139 133.362,382.431 133.528,382.600 133.596 C 388.873 136.118,390.357 143.435,385.849 149.613 C 382.207 154.604,379.967 156.512,374.270 159.481 L 373.616 159.821 380.982 168.907 C 385.033 173.905,388.425 178.021,388.520 178.054 C 388.614 178.087,389.081 177.626,389.557 177.030 C 392.755 173.023,393.176 168.351,390.856 162.598 C 389.831 160.057,388.923 150.914,389.386 147.799 C 390.399 140.980,388.095 135.494,383.150 132.955 L 381.961 132.344 382.072 131.525 C 382.376 129.266,382.414 127.375,382.206 124.770 C 381.801 119.704,381.399 118.153,379.512 114.391 C 378.233 111.841,377.025 108.680,375.408 103.654 L 374.411 100.553 374.200 93.521 C 373.611 73.905,373.667 74.418,371.663 70.317 C 367.229 61.244,360.383 56.441,350.363 55.373 C 348.784 55.205,346.986 54.974,346.366 54.860 C 345.068 54.620,337.315 54.342,337.140 54.528 M220.833 69.484 C 220.580 69.870,220.339 70.151,220.297 70.110 C 220.213 70.025,221.061 68.782,221.203 68.782 C 221.253 68.782,221.086 69.098,220.833 69.484 M212.031 82.995 C 211.778 83.381,211.537 83.662,211.495 83.620 C 211.410 83.536,212.258 82.293,212.401 82.293 C 212.450 82.293,212.284 82.609,212.031 82.995 M180.053 88.343 C 180.444 88.656,180.444 88.658,180.041 88.473 C 179.816 88.369,179.493 88.233,179.324 88.171 C 179.059 88.072,179.061 88.055,179.337 88.041 C 179.512 88.032,179.834 88.168,180.053 88.343 M181.895 89.162 C 182.286 89.475,182.286 89.477,181.883 89.292 C 181.658 89.188,181.336 89.052,181.167 88.990 C 180.902 88.891,180.903 88.874,181.179 88.860 C 181.354 88.851,181.677 88.987,181.895 89.162 M183.738 89.981 C 184.129 90.294,184.129 90.296,183.726 90.111 C 183.501 90.007,183.178 89.871,183.009 89.808 C 182.744 89.710,182.746 89.692,183.021 89.678 C 183.197 89.670,183.519 89.805,183.738 89.981 M185.580 90.799 C 185.971 91.113,185.971 91.115,185.568 90.929 C 185.343 90.826,185.020 90.690,184.852 90.627 C 184.586 90.529,184.588 90.511,184.864 90.497 C 185.039 90.488,185.362 90.624,185.580 90.799 M187.422 91.618 C 187.813 91.932,187.813 91.934,187.410 91.748 C 187.185 91.645,186.863 91.509,186.694 91.446 C 186.429 91.348,186.430 91.330,186.706 91.316 C 186.882 91.307,187.204 91.443,187.422 91.618 M189.265 92.423 C 189.628 92.701,189.606 92.708,188.997 92.505 C 188.302 92.274,188.143 92.119,188.600 92.119 C 188.747 92.119,189.046 92.256,189.265 92.423 M198.886 96.736 C 199.277 97.049,199.277 97.051,198.874 96.866 C 198.649 96.762,198.327 96.626,198.158 96.564 C 197.892 96.465,197.894 96.448,198.170 96.434 C 198.345 96.425,198.668 96.561,198.886 96.736 M200.729 97.555 C 201.120 97.868,201.119 97.870,200.716 97.685 C 200.491 97.581,200.169 97.445,200.000 97.383 C 199.735 97.284,199.736 97.267,200.012 97.253 C 200.188 97.244,200.510 97.380,200.729 97.555 M103.422 111.578 C 103.142 111.812,100.511 112.224,100.160 112.089 C 99.966 112.015,99.876 112.022,99.959 112.105 C 100.129 112.275,93.384 113.456,93.133 113.300 C 93.045 113.246,92.942 113.290,92.904 113.398 C 92.866 113.506,92.329 113.635,91.709 113.685 C 91.090 113.734,90.440 113.834,90.264 113.906 C 90.089 113.978,89.514 114.056,88.986 114.081 C 88.459 114.105,88.027 114.205,88.026 114.302 C 88.025 114.400,87.794 114.436,87.513 114.382 C 87.231 114.328,87.001 114.370,87.001 114.476 C 87.001 114.581,86.748 114.641,86.438 114.608 C 86.128 114.576,85.771 114.614,85.644 114.692 C 85.517 114.771,84.964 114.873,84.416 114.920 C 83.867 114.966,83.257 115.070,83.060 115.149 C 82.863 115.229,82.564 115.242,82.395 115.177 C 82.226 115.112,82.088 115.159,82.088 115.280 C 82.088 115.410,81.834 115.465,81.479 115.413 C 81.144 115.363,80.844 115.383,80.814 115.456 C 80.733 115.646,76.571 116.305,76.343 116.164 C 76.238 116.099,76.151 116.153,76.151 116.285 C 76.151 116.436,75.922 116.492,75.537 116.435 C 75.200 116.386,74.923 116.410,74.923 116.490 C 74.923 116.622,72.040 117.132,71.696 117.060 C 71.613 117.042,71.407 117.080,71.238 117.144 C 70.521 117.414,68.393 117.744,68.187 117.617 C 68.064 117.541,67.963 117.576,67.963 117.695 C 67.963 117.814,67.742 117.912,67.473 117.912 C 67.203 117.912,65.475 118.182,63.634 118.512 C 61.793 118.842,59.894 119.173,59.414 119.247 C 58.363 119.409,58.019 119.885,58.379 120.676 C 58.559 121.069,58.736 121.186,59.046 121.112 C 59.278 121.057,59.928 120.948,60.491 120.869 C 61.054 120.790,61.602 120.675,61.709 120.612 C 61.816 120.550,62.092 120.477,62.323 120.452 C 64.093 120.254,67.154 119.763,67.554 119.612 C 67.871 119.493,68.038 119.465,69.606 119.264 C 70.116 119.198,70.991 119.048,71.551 118.929 C 72.111 118.810,72.707 118.709,72.876 118.705 C 73.045 118.700,73.321 118.642,73.490 118.576 C 73.659 118.510,73.982 118.428,74.207 118.395 C 75.269 118.237,75.924 118.144,76.868 118.017 C 77.431 117.942,78.306 117.790,78.813 117.679 C 79.319 117.569,79.914 117.480,80.134 117.481 C 80.354 117.482,80.649 117.388,80.790 117.271 C 80.931 117.154,81.121 117.104,81.212 117.160 C 81.304 117.217,81.837 117.172,82.398 117.062 C 84.099 116.727,85.518 116.490,85.977 116.463 C 86.146 116.453,86.423 116.391,86.592 116.324 C 86.760 116.258,87.083 116.185,87.308 116.161 C 87.533 116.137,88.086 116.057,88.536 115.982 C 90.188 115.708,90.596 115.640,91.198 115.535 C 91.535 115.476,91.950 115.405,92.119 115.376 C 92.288 115.348,92.564 115.269,92.733 115.202 C 92.902 115.135,93.178 115.074,93.347 115.065 C 93.857 115.041,95.474 114.803,97.134 114.509 C 97.472 114.450,97.886 114.395,98.055 114.388 C 98.224 114.382,98.473 114.289,98.608 114.182 C 98.744 114.076,99.035 114.046,99.256 114.116 C 99.478 114.186,99.717 114.149,99.788 114.034 C 99.860 113.919,100.121 113.831,100.368 113.840 C 100.616 113.848,101.095 113.807,101.433 113.747 C 102.703 113.525,103.695 113.376,103.992 113.365 C 104.161 113.358,104.413 113.263,104.552 113.153 C 104.691 113.043,104.965 113.014,105.160 113.089 C 105.355 113.164,105.452 113.162,105.375 113.085 C 105.298 113.008,105.328 112.771,105.442 112.558 C 105.813 111.864,104.086 111.026,103.422 111.578 M53.060 141.494 C 52.925 141.629,52.815 141.955,52.815 142.217 C 52.815 142.480,52.685 142.744,52.526 142.805 C 52.367 142.866,52.173 143.163,52.095 143.464 C 51.755 144.769,51.844 272.247,52.185 272.550 C 52.683 272.993,86.842 292.737,87.317 292.856 C 88.560 293.168,88.491 294.537,88.553 268.219 C 88.584 255.074,88.667 223.516,88.737 198.090 C 88.821 167.814,88.796 151.776,88.664 151.617 C 88.512 151.434,88.659 151.392,89.249 151.449 C 90.780 151.595,90.824 150.060,89.301 149.660 C 87.072 149.074,53.864 141.249,53.608 141.249 C 53.442 141.249,53.195 141.359,53.060 141.494 M218.514 156.499 C 218.514 159.652,218.542 160.913,218.577 159.302 C 218.612 157.691,218.611 155.111,218.577 153.570 C 218.542 152.029,218.514 153.347,218.514 156.499 M216.669 168.475 C 216.669 171.008,216.698 172.045,216.734 170.778 C 216.770 169.511,216.770 167.439,216.734 166.172 C 216.698 164.905,216.669 165.942,216.669 168.475 M86.950 191.950 C 86.919 196.771,86.894 192.886,86.894 183.316 C 86.894 173.746,86.919 169.801,86.950 174.550 C 86.980 179.298,86.980 187.128,86.950 191.950 M251.477 177.687 C 251.477 183.260,251.503 185.540,251.535 182.753 C 251.567 179.967,251.567 175.407,251.535 172.620 C 251.503 169.834,251.477 172.114,251.477 177.687 M253.312 193.040 C 253.312 195.573,253.341 196.610,253.377 195.343 C 253.413 194.076,253.413 192.004,253.377 190.737 C 253.341 189.470,253.312 190.507,253.312 193.040 M53.889 248.957 C 53.918 261.415,53.872 271.566,53.787 271.514 C 53.703 271.462,53.656 255.557,53.683 236.170 C 53.710 216.783,53.756 206.633,53.785 213.613 C 53.814 220.594,53.861 236.498,53.889 248.957 M218.724 227.636 C 218.724 233.659,218.750 236.123,218.782 233.112 C 218.814 230.100,218.814 225.171,218.782 222.160 C 218.750 219.148,218.724 221.612,218.724 227.636 M251.272 247.083 C 251.272 252.544,251.298 254.777,251.330 252.047 C 251.363 249.317,251.363 244.849,251.330 242.119 C 251.298 239.388,251.272 241.622,251.272 247.083 M216.874 244.524 C 216.874 247.226,216.904 248.303,216.939 246.918 C 216.975 245.532,216.974 243.321,216.939 242.005 C 216.903 240.688,216.874 241.822,216.874 244.524 M86.745 267.503 C 86.714 272.316,86.689 268.378,86.689 258.751 C 86.689 249.125,86.714 245.187,86.745 250.000 C 86.776 254.813,86.776 262.689,86.745 267.503 M253.106 262.538 C 253.106 264.903,253.136 265.842,253.172 264.626 C 253.209 263.409,253.208 261.475,253.172 260.327 C 253.136 259.179,253.106 260.174,253.106 262.538 " stroke="none" fill="#f08c74" fill-rule="evenodd"></path></g></svg>