<svg id="svg" version="1.1" xmlns="http://www.w3.org/2000/svg" xmlns:xlink="http://www.w3.org/1999/xlink" width="400" height="400" viewBox="0, 0, 400,400"><g id="svgg"><path id="path0" d="M153.845 56.658 C 152.833 57.274,152.480 57.777,145.274 68.893 C 141.140 75.269,137.498 80.802,137.179 81.189 C 136.861 81.575,136.600 81.962,136.600 82.048 C 136.600 82.212,134.988 84.746,133.386 87.100 C 132.862 87.870,131.471 89.985,130.296 91.800 C 129.120 93.615,128.025 95.206,127.862 95.335 C 127.496 95.624,127.234 96.741,127.387 97.357 C 127.499 97.811,130.760 99.472,131.299 99.350 C 131.419 99.322,132.684 99.811,134.109 100.435 C 135.534 101.060,138.185 102.213,140.000 102.999 C 145.354 105.316,148.693 106.769,152.200 108.305 C 154.015 109.100,157.615 110.674,160.200 111.802 C 162.785 112.930,165.993 114.336,167.329 114.927 C 170.052 116.130,170.000 116.115,170.000 115.694 C 170.000 115.525,170.120 115.341,170.267 115.285 C 170.413 115.229,170.535 114.939,170.538 114.641 C 170.542 114.074,198.634 70.026,199.413 69.365 C 199.781 69.052,199.784 69.022,199.454 68.926 C 199.259 68.870,195.770 67.864,191.700 66.693 C 183.298 64.273,170.245 60.484,161.106 57.812 C 157.699 56.815,154.909 56.004,154.906 56.008 C 154.903 56.012,154.425 56.305,153.845 56.658 M237.090 79.953 C 236.974 80.034,236.588 80.581,236.230 81.169 C 234.810 83.505,204.895 129.345,204.369 129.993 C 204.059 130.373,203.871 130.744,203.953 130.817 C 204.159 131.001,214.388 135.528,215.000 135.706 C 215.275 135.786,218.920 137.381,223.100 139.250 C 227.280 141.119,230.835 142.695,231.000 142.752 C 231.165 142.809,233.955 144.025,237.200 145.455 C 240.445 146.885,243.640 148.261,244.300 148.513 C 244.960 148.766,246.625 149.482,248.000 150.106 C 249.375 150.729,251.175 151.509,252.000 151.839 C 252.825 152.169,254.130 152.689,254.900 152.996 C 255.670 153.302,257.425 154.103,258.800 154.776 C 261.784 156.235,261.622 156.215,261.471 155.111 C 261.318 154.002,259.218 157.488,279.240 125.629 C 296.796 97.696,296.450 98.212,297.650 98.204 C 299.012 98.196,298.519 97.617,296.702 97.091 C 296.044 96.900,295.369 96.665,295.202 96.567 C 295.036 96.470,282.525 92.834,267.400 88.487 C 252.275 84.140,239.328 80.407,238.629 80.192 C 237.159 79.739,237.353 79.769,237.090 79.953 M147.200 115.500 C 147.573 115.885,147.923 116.200,147.978 116.200 C 148.033 116.200,147.773 115.885,147.400 115.500 C 147.027 115.115,146.677 114.800,146.622 114.800 C 146.567 114.800,146.827 115.115,147.200 115.500 M151.600 119.693 C 151.600 119.825,152.990 121.200,153.124 121.200 C 153.184 121.200,152.893 120.840,152.476 120.400 C 151.730 119.613,151.600 119.508,151.600 119.693 M159.420 127.323 C 159.509 127.548,161.200 129.099,161.200 128.956 C 161.200 128.906,160.782 128.473,160.270 127.994 C 159.759 127.515,159.377 127.213,159.420 127.323 M161.583 133.483 C 161.538 133.529,161.136 133.620,160.692 133.686 C 160.248 133.753,159.666 133.849,159.400 133.900 C 159.134 133.951,158.594 134.041,158.200 134.100 C 157.806 134.159,157.263 134.252,156.992 134.307 C 156.721 134.362,156.196 134.458,155.825 134.520 C 155.453 134.582,154.962 134.669,154.733 134.713 C 154.504 134.757,153.994 134.841,153.600 134.900 C 153.206 134.959,152.666 135.049,152.400 135.100 C 152.134 135.151,151.594 135.241,151.200 135.300 C 150.293 135.435,149.659 135.557,149.234 135.678 C 149.050 135.731,148.495 135.825,148.000 135.887 C 147.505 135.950,146.879 136.044,146.608 136.097 C 146.337 136.150,145.794 136.241,145.400 136.300 C 145.006 136.359,144.496 136.443,144.267 136.487 C 143.619 136.612,142.332 136.840,142.000 136.888 C 141.835 136.912,141.430 136.990,141.100 137.060 C 140.770 137.130,140.136 137.237,139.692 137.297 C 139.248 137.357,138.666 137.449,138.400 137.500 C 138.134 137.551,137.594 137.641,137.200 137.700 C 136.806 137.759,136.263 137.853,135.992 137.910 C 135.413 138.032,134.746 138.146,133.856 138.276 C 133.501 138.327,133.051 138.415,132.856 138.472 C 132.660 138.528,132.095 138.625,131.600 138.687 C 131.105 138.750,130.509 138.838,130.275 138.884 C 129.901 138.957,129.343 139.057,127.900 139.310 C 126.998 139.468,126.265 139.587,125.656 139.676 C 125.301 139.727,124.851 139.815,124.656 139.872 C 124.460 139.928,123.895 140.025,123.400 140.087 C 122.905 140.150,122.275 140.249,122.000 140.307 C 121.725 140.366,121.275 140.452,121.000 140.498 C 119.515 140.748,117.868 141.017,117.400 141.087 C 117.235 141.112,116.830 141.189,116.500 141.258 C 116.170 141.328,115.540 141.442,115.100 141.512 C 114.660 141.582,114.120 141.672,113.900 141.710 C 113.680 141.749,113.185 141.831,112.800 141.894 C 112.415 141.956,111.830 142.053,111.500 142.108 C 111.170 142.163,110.675 142.243,110.400 142.287 C 110.125 142.331,109.495 142.459,109.000 142.570 C 107.828 142.836,64.009 150.354,62.700 150.514 C 61.075 150.713,60.917 150.742,60.550 150.896 C 60.358 150.977,60.076 150.995,59.924 150.937 C 59.773 150.879,59.570 150.909,59.474 151.004 C 59.378 151.099,58.805 151.234,58.200 151.304 C 57.148 151.426,56.635 151.501,55.300 151.727 C 54.970 151.783,54.520 151.856,54.300 151.889 C 54.080 151.922,53.743 152.015,53.550 152.096 C 53.358 152.177,53.068 152.192,52.906 152.130 C 52.745 152.068,52.556 152.109,52.487 152.221 C 52.418 152.332,52.168 152.399,51.931 152.368 C 51.694 152.337,51.405 152.372,51.288 152.444 C 51.172 152.517,50.587 152.634,49.988 152.704 C 49.390 152.774,48.630 152.876,48.300 152.930 C 47.970 152.985,47.520 153.056,47.300 153.089 C 47.080 153.122,46.743 153.215,46.550 153.296 C 46.358 153.377,46.068 153.392,45.906 153.330 C 45.745 153.268,45.556 153.309,45.487 153.421 C 45.418 153.532,45.168 153.605,44.931 153.582 C 44.694 153.559,44.343 153.609,44.150 153.692 C 43.958 153.775,43.676 153.795,43.524 153.737 C 43.373 153.679,43.170 153.709,43.074 153.804 C 42.978 153.899,42.405 154.034,41.800 154.106 C 40.125 154.303,39.928 154.337,39.550 154.496 C 39.358 154.577,39.068 154.592,38.906 154.530 C 38.745 154.468,38.556 154.509,38.487 154.621 C 38.418 154.732,38.168 154.805,37.931 154.782 C 37.694 154.759,37.343 154.809,37.150 154.892 C 36.958 154.975,36.668 154.992,36.506 154.930 C 36.345 154.868,36.156 154.909,36.087 155.021 C 36.018 155.132,35.768 155.205,35.531 155.182 C 35.294 155.159,34.965 155.198,34.800 155.269 C 34.635 155.340,34.140 155.433,33.700 155.476 C 33.260 155.519,32.743 155.619,32.550 155.698 C 32.358 155.778,32.068 155.792,31.906 155.730 C 31.745 155.668,31.556 155.709,31.487 155.821 C 31.418 155.932,31.168 156.005,30.931 155.982 C 30.694 155.959,30.343 156.009,30.150 156.092 C 29.957 156.175,29.668 156.192,29.506 156.130 C 29.345 156.068,29.156 156.109,29.087 156.221 C 29.018 156.332,28.768 156.405,28.531 156.382 C 28.294 156.359,27.943 156.409,27.750 156.492 C 27.558 156.575,27.276 156.595,27.124 156.537 C 26.973 156.479,26.764 156.516,26.661 156.619 C 26.558 156.722,26.074 156.841,25.587 156.883 C 25.099 156.925,24.542 157.023,24.350 157.101 C 24.157 157.179,23.868 157.192,23.706 157.130 C 23.545 157.068,23.356 157.109,23.287 157.221 C 23.218 157.332,22.968 157.405,22.731 157.382 C 22.494 157.359,22.142 157.409,21.950 157.492 C 21.757 157.575,21.468 157.592,21.306 157.530 C 21.145 157.468,20.956 157.509,20.887 157.621 C 20.818 157.732,20.568 157.805,20.331 157.782 C 20.094 157.759,19.743 157.809,19.550 157.892 C 19.358 157.975,19.071 157.993,18.913 157.933 C 18.755 157.872,18.598 157.905,18.563 158.007 C 18.528 158.108,18.050 158.229,17.500 158.275 C 16.950 158.321,16.343 158.423,16.150 158.501 C 15.957 158.579,15.668 158.592,15.506 158.530 C 15.345 158.468,15.154 158.512,15.083 158.628 C 15.012 158.743,14.739 158.797,14.477 158.747 C 14.214 158.696,14.000 158.714,14.000 158.785 C 14.000 158.965,12.897 159.087,11.700 159.041 C 10.450 158.993,9.800 159.135,9.800 159.456 C 9.800 159.592,9.620 159.816,9.400 159.954 C 9.002 160.202,9.000 160.420,9.000 215.287 C 9.000 273.627,8.963 271.000,9.791 271.000 C 9.881 271.000,20.472 277.076,33.327 284.503 L 56.700 298.006 56.800 235.153 C 56.855 200.584,56.974 172.149,57.065 171.965 C 57.156 171.781,57.352 171.584,57.500 171.528 C 57.939 171.359,57.606 170.609,57.026 170.464 C 56.737 170.391,47.590 168.110,36.700 165.396 C 25.810 162.681,17.035 160.406,17.200 160.340 C 17.639 160.164,161.191 135.569,161.900 135.548 C 162.230 135.538,162.825 135.593,163.222 135.669 L 163.944 135.808 163.722 134.854 C 163.600 134.329,163.427 133.787,163.338 133.650 C 163.191 133.422,161.779 133.288,161.583 133.483 M199.000 182.913 C 182.219 187.440,167.498 191.384,159.700 193.444 C 157.610 193.996,155.733 194.551,155.529 194.679 C 155.225 194.868,149.651 193.535,124.929 187.361 C 100.532 181.267,94.609 179.850,94.227 180.012 C 93.967 180.122,93.584 180.159,93.377 180.093 C 93.010 179.976,93.000 180.435,93.000 198.237 C 93.000 234.184,92.777 316.713,92.678 317.361 C 92.618 317.758,92.430 318.077,92.206 318.161 C 91.922 318.267,92.743 318.826,95.667 320.518 C 123.817 336.808,153.987 354.175,154.310 354.275 C 155.072 354.511,155.582 353.910,154.902 353.577 C 154.591 353.425,154.163 353.066,153.952 352.780 C 153.573 352.269,153.570 351.014,153.714 274.615 L 153.861 196.969 154.281 196.364 C 155.046 195.261,155.613 195.066,156.614 195.561 L 157.474 195.986 187.287 187.989 C 216.529 180.145,218.344 179.642,217.490 179.614 C 216.946 179.596,216.600 179.225,216.600 178.660 C 216.600 178.094,219.156 177.476,199.000 182.913 M387.574 208.352 C 387.678 208.546,387.968 208.883,388.218 209.102 C 388.591 209.428,388.572 209.364,388.113 208.750 C 387.520 207.956,387.260 207.764,387.574 208.352 M389.220 210.300 C 389.678 210.978,390.600 212.023,390.594 211.857 C 390.591 211.771,390.219 211.295,389.769 210.800 C 389.318 210.305,389.071 210.080,389.220 210.300 M390.943 212.450 C 391.048 212.588,391.959 213.718,392.967 214.963 C 395.204 217.725,395.198 217.517,393.140 220.718 C 391.254 223.653,391.052 223.989,391.344 223.700 C 391.765 223.284,393.800 220.238,393.800 220.024 C 393.800 219.901,393.873 219.800,393.963 219.800 C 394.236 219.800,395.000 218.279,395.000 217.736 C 395.000 217.421,394.610 216.745,393.975 215.963 C 393.411 215.268,392.503 214.138,391.957 213.450 C 391.410 212.763,390.916 212.200,390.857 212.200 C 390.799 212.200,390.837 212.313,390.943 212.450 M389.542 226.350 C 388.725 227.643,387.281 229.936,386.334 231.447 C 385.388 232.958,384.465 234.420,384.284 234.697 C 384.102 234.974,384.004 235.200,384.064 235.200 C 384.188 235.200,386.400 231.888,386.400 231.702 C 386.400 231.592,387.179 230.421,387.400 230.200 C 387.455 230.145,387.672 229.763,387.881 229.350 C 388.091 228.938,388.339 228.600,388.431 228.600 C 388.524 228.600,388.600 228.465,388.600 228.300 C 388.600 228.135,388.676 228.000,388.769 228.000 C 388.861 228.000,389.109 227.663,389.319 227.250 C 389.528 226.838,389.975 226.050,390.311 225.500 C 390.648 224.950,390.990 224.388,391.073 224.250 C 391.156 224.113,391.180 224.000,391.126 224.000 C 391.073 224.000,390.360 225.058,389.542 226.350 M383.103 236.544 L 382.752 237.100 383.215 236.656 C 383.469 236.411,383.627 236.161,383.566 236.099 C 383.504 236.038,383.296 236.238,383.103 236.544 M300.284 243.400 C 300.284 245.545,300.313 246.423,300.349 245.350 C 300.385 244.278,300.385 242.523,300.349 241.450 C 300.313 240.378,300.284 241.255,300.284 243.400 M377.987 244.632 C 375.206 249.049,375.355 248.800,375.495 248.800 C 375.657 248.800,378.200 244.889,378.200 244.639 C 378.200 244.526,378.273 244.403,378.362 244.367 C 378.451 244.330,378.814 243.805,379.168 243.200 C 380.180 241.474,380.287 241.309,380.500 241.153 C 380.630 241.057,380.626 241.005,380.487 241.003 C 380.369 241.001,379.244 242.635,377.987 244.632 M374.676 249.850 C 373.988 251.018,373.943 251.118,374.294 250.700 C 374.700 250.216,375.050 249.600,374.919 249.600 C 374.866 249.600,374.757 249.713,374.676 249.850 M372.876 252.650 C 372.188 253.818,372.143 253.918,372.494 253.500 C 372.900 253.016,373.250 252.400,373.119 252.400 C 373.066 252.400,372.957 252.513,372.876 252.650 M371.524 254.800 C 370.959 255.654,370.005 255.902,369.411 255.350 C 369.194 255.149,369.171 255.151,369.290 255.362 C 369.719 256.118,371.600 255.870,371.600 255.057 C 371.600 254.916,371.680 254.800,371.777 254.800 C 371.874 254.800,372.000 254.620,372.058 254.400 C 372.207 253.832,372.123 253.894,371.524 254.800 " stroke="none" fill="#e0bdb6" fill-rule="evenodd"></path><path id="path1" d="M296.469 98.554 C 296.015 98.919,261.872 153.118,261.536 154.007 C 261.184 154.939,261.514 155.885,262.326 156.272 C 262.723 156.461,264.698 158.155,266.715 160.035 C 268.732 161.916,270.688 163.645,271.063 163.877 C 271.437 164.110,273.669 166.111,276.022 168.324 C 284.668 176.456,295.469 186.552,297.521 188.421 C 298.682 189.478,300.007 190.742,300.465 191.230 C 301.392 192.215,308.755 199.069,308.978 199.153 C 309.055 199.182,316.132 188.436,324.705 175.272 C 333.679 161.493,340.442 151.299,340.646 151.246 C 341.221 151.096,341.352 151.271,332.250 140.043 C 314.348 117.958,309.980 112.557,305.125 106.504 C 302.389 103.092,300.049 100.170,299.925 100.012 C 299.746 99.783,299.762 99.754,300.000 99.871 C 300.165 99.952,300.098 99.868,299.850 99.685 C 299.603 99.501,299.400 99.241,299.400 99.107 C 299.400 98.255,297.328 97.865,296.469 98.554 M137.600 102.100 C 137.875 102.257,138.190 102.386,138.300 102.386 C 138.410 102.386,138.275 102.257,138.000 102.100 C 137.725 101.943,137.410 101.814,137.300 101.814 C 137.190 101.814,137.325 101.943,137.600 102.100 M138.192 106.650 C 138.682 107.172,139.110 107.600,139.142 107.600 C 139.292 107.600,139.133 107.420,138.250 106.592 L 137.300 105.700 138.192 106.650 M140.592 109.050 C 141.420 109.933,141.600 110.092,141.600 109.942 C 141.600 109.910,141.172 109.482,140.650 108.992 L 139.700 108.100 140.592 109.050 M156.400 110.300 C 156.675 110.457,156.990 110.586,157.100 110.586 C 157.210 110.586,157.075 110.457,156.800 110.300 C 156.525 110.143,156.210 110.014,156.100 110.014 C 155.990 110.014,156.125 110.143,156.400 110.300 M158.000 111.000 C 158.385 111.211,158.790 111.383,158.900 111.383 C 159.010 111.383,158.785 111.211,158.400 111.000 C 158.015 110.789,157.610 110.617,157.500 110.617 C 157.390 110.617,157.615 110.789,158.000 111.000 M159.600 111.700 C 159.875 111.857,160.190 111.986,160.300 111.986 C 160.410 111.986,160.275 111.857,160.000 111.700 C 159.725 111.543,159.410 111.414,159.300 111.414 C 159.190 111.414,159.325 111.543,159.600 111.700 M145.400 113.700 C 145.997 114.305,146.531 114.800,146.586 114.800 C 146.641 114.800,146.197 114.305,145.600 113.700 C 145.003 113.095,144.469 112.600,144.414 112.600 C 144.359 112.600,144.803 113.095,145.400 113.700 M166.775 114.806 C 167.696 115.252,168.484 115.582,168.527 115.540 C 168.570 115.497,167.951 115.170,167.152 114.813 C 165.043 113.870,164.833 113.866,166.775 114.806 M203.787 130.515 C 203.519 130.838,203.793 131.199,204.300 131.191 C 204.410 131.189,204.338 131.093,204.139 130.978 C 203.854 130.812,203.827 130.708,204.013 130.484 C 204.143 130.328,204.204 130.200,204.149 130.200 C 204.094 130.200,203.931 130.342,203.787 130.515 M205.000 131.500 C 205.275 131.657,205.590 131.786,205.700 131.786 C 205.810 131.786,205.675 131.657,205.400 131.500 C 205.125 131.343,204.810 131.214,204.700 131.214 C 204.590 131.214,204.725 131.343,205.000 131.500 M163.648 134.567 C 163.754 135.080,163.944 135.605,164.070 135.733 C 164.254 135.920,171.211 137.451,171.334 137.332 C 171.556 137.117,170.854 135.373,170.515 135.298 C 170.287 135.248,168.795 134.930,167.200 134.592 C 165.605 134.254,164.110 133.900,163.878 133.806 C 163.470 133.640,163.462 133.665,163.648 134.567 M89.565 147.868 C 49.780 154.706,17.180 160.350,17.121 160.411 C 17.061 160.472,26.032 162.759,37.056 165.493 C 59.849 171.147,57.593 170.546,57.624 170.971 C 57.637 171.152,57.705 171.030,57.775 170.700 C 57.873 170.238,58.025 170.086,58.439 170.038 C 58.840 169.991,88.814 176.956,93.648 178.219 C 94.480 178.436,94.845 179.164,94.394 179.707 C 94.190 179.953,94.195 179.991,94.422 179.913 C 94.575 179.860,108.312 183.215,124.949 187.369 C 142.419 191.730,155.274 194.846,155.375 194.745 C 155.472 194.648,157.326 194.087,159.494 193.499 C 161.663 192.911,163.479 192.388,163.531 192.336 C 163.583 192.284,163.479 179.574,163.300 164.091 C 163.030 140.835,163.020 135.911,163.237 135.773 C 163.416 135.660,163.329 135.605,162.966 135.603 C 162.673 135.601,162.313 135.563,162.166 135.518 C 162.020 135.473,129.349 141.031,89.565 147.868 M216.800 136.600 C 217.185 136.811,217.590 136.983,217.700 136.983 C 217.810 136.983,217.585 136.811,217.200 136.600 C 216.815 136.389,216.410 136.217,216.300 136.217 C 216.190 136.217,216.415 136.389,216.800 136.600 M245.581 149.211 C 246.286 149.537,246.896 149.771,246.936 149.731 C 247.023 149.644,244.725 148.596,244.475 148.609 C 244.379 148.614,244.877 148.885,245.581 149.211 M25.200 156.800 C 24.528 157.015,25.254 157.015,26.100 156.800 C 26.639 156.663,26.649 156.647,26.200 156.644 C 25.925 156.642,25.475 156.712,25.200 156.800 M17.000 158.210 C 16.663 158.324,16.826 158.342,17.500 158.264 C 18.050 158.201,18.538 158.115,18.583 158.074 C 18.741 157.934,17.500 158.040,17.000 158.210 M56.895 187.700 C 56.895 196.170,56.920 199.606,56.950 195.335 C 56.980 191.065,56.980 184.135,56.950 179.935 C 56.920 175.736,56.895 179.230,56.895 187.700 M363.759 179.850 C 363.529 180.032,335.837 221.423,334.944 222.921 C 334.828 223.116,341.723 229.597,364.353 250.562 C 369.379 255.218,369.869 255.619,370.458 255.562 C 371.061 255.504,371.302 255.178,374.624 249.959 C 376.564 246.911,378.222 244.481,378.308 244.559 C 378.394 244.637,378.411 244.607,378.347 244.493 C 378.207 244.245,379.463 242.144,379.662 242.295 C 379.738 242.353,379.759 242.344,379.708 242.275 C 379.571 242.089,380.177 241.000,380.417 241.000 C 380.531 241.000,380.576 240.924,380.519 240.830 C 380.461 240.737,380.591 240.471,380.807 240.239 C 381.023 240.007,381.200 239.755,381.200 239.680 C 381.200 239.398,383.444 236.000,383.630 236.000 C 383.736 236.000,383.771 235.916,383.708 235.812 C 383.644 235.709,383.751 235.532,383.946 235.418 C 384.141 235.305,384.227 235.209,384.139 235.206 C 384.050 235.203,384.134 234.935,384.325 234.611 C 384.517 234.287,384.732 234.058,384.803 234.102 C 384.875 234.146,384.936 234.074,384.938 233.941 C 384.944 233.681,386.389 231.200,386.535 231.200 C 386.584 231.200,386.559 231.304,386.481 231.431 C 386.392 231.575,386.426 231.607,386.572 231.517 C 386.701 231.437,386.755 231.289,386.692 231.187 C 386.539 230.940,387.093 230.160,387.285 230.351 C 387.366 230.433,387.415 230.410,387.393 230.300 C 387.308 229.877,387.408 229.582,387.598 229.699 C 387.715 229.771,387.742 229.681,387.664 229.478 C 387.584 229.271,387.612 229.184,387.733 229.258 C 387.843 229.327,387.933 229.271,387.933 229.134 C 387.933 228.815,390.979 224.000,391.181 224.000 C 391.265 224.000,391.335 223.888,391.336 223.750 C 391.338 223.613,392.118 222.293,393.070 220.818 C 395.143 217.604,395.138 217.659,393.510 215.643 C 392.801 214.764,392.261 213.990,392.310 213.923 C 392.360 213.855,392.343 213.842,392.273 213.894 C 392.203 213.945,391.886 213.653,391.567 213.244 C 391.249 212.835,390.654 212.105,390.244 211.622 C 389.835 211.139,389.367 210.532,389.204 210.272 C 389.041 210.012,388.833 209.800,388.742 209.800 C 388.651 209.800,388.632 209.710,388.700 209.600 C 388.768 209.490,388.733 209.400,388.623 209.400 C 388.512 209.400,388.013 208.882,387.513 208.250 C 387.013 207.618,386.344 206.830,386.026 206.500 C 385.708 206.170,382.940 202.781,379.874 198.970 C 366.716 182.610,364.294 179.621,364.188 179.611 C 364.127 179.605,363.934 179.713,363.759 179.850 M187.500 187.907 L 157.500 195.983 156.624 195.561 C 155.605 195.070,155.045 195.262,154.281 196.364 L 153.861 196.969 153.714 274.615 C 153.570 350.806,153.574 352.270,153.949 352.772 C 154.979 354.152,156.513 354.301,158.397 353.204 C 159.114 352.787,160.015 352.266,160.400 352.047 C 160.785 351.828,165.508 349.109,170.896 346.005 C 176.284 342.901,181.054 340.157,181.496 339.906 C 181.938 339.655,183.425 338.800,184.800 338.005 C 186.175 337.211,187.660 336.355,188.100 336.105 C 188.540 335.854,194.795 332.254,202.000 328.104 C 209.205 323.954,215.460 320.354,215.900 320.104 C 216.340 319.854,222.595 316.254,229.800 312.104 C 237.005 307.954,243.260 304.354,243.700 304.104 C 244.140 303.854,251.880 299.399,260.900 294.204 C 269.920 289.009,277.718 284.521,278.230 284.229 C 289.086 278.050,299.710 271.810,299.905 271.500 C 300.102 271.187,300.186 265.246,300.294 244.047 L 300.430 216.995 299.923 217.226 C 299.254 217.531,299.396 217.631,292.800 212.204 C 289.775 209.714,284.518 205.388,281.118 202.589 C 273.859 196.613,266.889 190.892,262.000 186.896 C 260.075 185.323,257.455 183.177,256.177 182.129 L 253.854 180.222 253.714 238.861 C 253.584 293.396,253.550 297.533,253.237 297.965 C 253.052 298.221,245.354 302.751,236.130 308.032 C 219.040 317.817,218.674 318.003,218.334 317.116 C 218.220 316.819,218.082 287.586,217.872 219.350 C 217.805 197.597,217.694 179.807,217.625 179.815 C 217.556 179.824,204.000 183.465,187.500 187.907 M92.889 243.200 C 92.889 246.775,92.916 248.238,92.950 246.450 C 92.983 244.663,92.983 241.738,92.950 239.950 C 92.916 238.163,92.889 239.625,92.889 243.200 M92.683 313.900 C 92.683 315.880,92.713 316.663,92.749 315.640 C 92.786 314.617,92.785 312.997,92.749 312.040 C 92.712 311.083,92.682 311.920,92.683 313.900 " stroke="none" fill="#d1a8a0" fill-rule="evenodd"></path><path id="path2" d="M131.400 99.582 C 131.400 99.882,131.377 99.859,141.901 110.125 C 146.962 115.061,154.657 122.576,159.001 126.823 L 166.900 134.547 183.300 137.883 C 192.320 139.718,199.891 141.267,200.124 141.325 C 200.502 141.419,200.546 141.349,200.524 140.692 C 200.479 139.327,199.641 139.205,219.528 143.463 C 229.633 145.627,239.025 147.577,240.400 147.797 C 242.945 148.205,243.536 148.488,243.334 149.200 C 243.287 149.365,243.215 149.626,243.174 149.779 C 243.113 150.008,251.094 151.899,251.342 151.714 C 251.365 151.697,250.465 151.291,249.342 150.812 C 248.219 150.334,244.496 148.695,241.068 147.171 C 237.641 145.647,234.783 144.400,234.717 144.400 C 234.651 144.400,231.110 142.838,226.848 140.929 C 222.587 139.020,218.875 137.391,218.600 137.308 C 218.325 137.226,215.895 136.189,213.200 135.004 C 210.505 133.820,207.243 132.417,205.950 131.886 C 204.658 131.356,203.600 130.852,203.600 130.767 C 203.600 130.682,203.481 130.658,203.335 130.714 C 203.039 130.828,170.892 117.124,170.363 116.658 C 170.178 116.496,170.051 116.258,170.081 116.131 C 170.110 116.004,170.100 115.957,170.058 116.027 C 169.963 116.187,168.637 115.686,165.970 114.483 C 164.831 113.970,162.100 112.761,159.900 111.797 C 157.700 110.833,154.640 109.461,153.100 108.748 C 151.560 108.035,149.760 107.230,149.100 106.958 C 147.753 106.403,139.316 102.809,136.400 101.547 C 135.355 101.095,134.410 100.660,134.300 100.580 C 134.190 100.501,133.650 100.259,133.100 100.043 C 132.550 99.828,131.942 99.585,131.750 99.504 C 131.537 99.415,131.400 99.445,131.400 99.582 M163.000 137.050 C 162.999 140.122,163.618 192.113,163.657 192.224 C 163.696 192.336,182.781 187.285,182.948 187.119 C 182.987 187.080,180.540 176.210,177.509 162.965 C 171.819 138.089,171.849 138.231,172.229 137.851 C 172.500 137.580,172.815 137.664,167.558 136.599 C 162.550 135.584,163.000 135.540,163.000 137.050 M261.976 156.271 C 262.126 156.452,262.380 156.600,262.539 156.600 C 262.699 156.600,263.386 157.115,264.065 157.744 L 265.300 158.888 264.300 157.828 C 263.371 156.843,261.298 155.454,261.976 156.271 M266.800 160.300 C 267.509 161.015,268.133 161.600,268.188 161.600 C 268.243 161.600,267.709 161.015,267.000 160.300 C 266.291 159.585,265.667 159.000,265.612 159.000 C 265.557 159.000,266.091 159.585,266.800 160.300 M269.392 162.650 C 270.220 163.533,270.400 163.692,270.400 163.542 C 270.400 163.510,269.973 163.082,269.450 162.592 L 268.500 161.700 269.392 162.650 M271.397 164.879 C 271.103 165.484,271.008 165.515,262.166 167.885 C 254.739 169.876,253.289 170.321,253.566 170.524 C 253.865 170.744,253.893 171.259,253.829 175.454 L 253.757 180.140 256.412 182.320 C 257.873 183.519,260.560 185.720,262.384 187.211 C 267.112 191.076,273.966 196.702,281.118 202.589 C 301.290 219.193,299.196 217.557,299.879 217.246 C 300.579 216.927,300.594 216.577,300.482 203.317 L 300.378 191.100 298.739 189.604 C 297.838 188.781,296.110 187.153,294.900 185.986 C 293.690 184.820,289.910 181.274,286.500 178.106 C 283.090 174.939,278.364 170.530,275.997 168.308 L 271.695 164.268 271.397 164.879 M56.894 215.200 C 56.894 221.415,56.919 223.958,56.950 220.850 C 56.981 217.743,56.981 212.658,56.950 209.550 C 56.919 206.443,56.894 208.985,56.894 215.200 M217.889 213.100 C 217.889 216.510,217.916 217.933,217.950 216.262 C 217.983 214.592,217.983 211.802,217.950 210.062 C 217.916 208.323,217.889 209.690,217.889 213.100 M334.800 223.263 C 334.800 223.297,335.093 223.590,335.450 223.913 L 336.100 224.500 335.513 223.850 C 334.965 223.244,334.800 223.108,334.800 223.263 M337.700 226.000 C 338.353 226.660,338.932 227.200,338.987 227.200 C 339.042 227.200,338.553 226.660,337.900 226.000 C 337.247 225.340,336.668 224.800,336.613 224.800 C 336.558 224.800,337.047 225.340,337.700 226.000 M300.400 225.664 C 300.400 225.825,300.512 226.004,300.650 226.061 C 300.788 226.117,302.106 226.668,303.581 227.284 C 305.055 227.901,306.293 228.374,306.331 228.335 C 306.369 228.297,305.180 227.744,303.687 227.105 C 302.195 226.467,300.844 225.816,300.687 225.658 C 300.438 225.409,300.400 225.410,300.400 225.664 M340.500 228.600 C 341.153 229.260,341.732 229.800,341.787 229.800 C 341.842 229.800,341.353 229.260,340.700 228.600 C 340.047 227.940,339.468 227.400,339.413 227.400 C 339.358 227.400,339.847 227.940,340.500 228.600 M92.884 232.500 C 92.884 234.700,92.913 235.627,92.949 234.561 C 92.985 233.494,92.985 231.694,92.949 230.561 C 92.914 229.427,92.884 230.300,92.884 232.500 M343.100 231.000 C 343.642 231.550,344.130 232.000,344.185 232.000 C 344.240 232.000,343.842 231.550,343.300 231.000 C 342.758 230.450,342.270 230.000,342.215 230.000 C 342.160 230.000,342.558 230.450,343.100 231.000 M253.688 236.100 C 253.688 239.180,253.716 240.412,253.750 238.838 C 253.783 237.264,253.783 234.744,253.749 233.238 C 253.716 231.732,253.688 233.020,253.688 236.100 M346.000 233.700 C 346.597 234.305,347.131 234.800,347.186 234.800 C 347.241 234.800,346.797 234.305,346.200 233.700 C 345.603 233.095,345.069 232.600,345.014 232.600 C 344.959 232.600,345.403 233.095,346.000 233.700 M348.700 236.200 C 349.242 236.750,349.730 237.200,349.785 237.200 C 349.840 237.200,349.442 236.750,348.900 236.200 C 348.358 235.650,347.870 235.200,347.815 235.200 C 347.760 235.200,348.158 235.650,348.700 236.200 M367.600 253.700 C 367.973 254.085,368.323 254.400,368.378 254.400 C 368.433 254.400,368.173 254.085,367.800 253.700 C 367.427 253.315,367.077 253.000,367.022 253.000 C 366.967 253.000,367.227 253.315,367.600 253.700 M218.089 287.300 C 218.089 290.710,218.116 292.133,218.150 290.462 C 218.183 288.792,218.183 286.002,218.150 284.262 C 218.116 282.523,218.089 283.890,218.089 287.300 M92.684 306.200 C 92.684 308.345,92.713 309.223,92.749 308.150 C 92.785 307.078,92.785 305.322,92.749 304.250 C 92.713 303.178,92.684 304.055,92.684 306.200 " stroke="none" fill="#bd928a" fill-rule="evenodd"></path><path id="path3" d="M172.249 137.831 C 172.112 137.968,172.000 138.260,172.000 138.481 C 172.000 138.831,182.974 187.066,183.065 187.116 C 183.084 187.126,190.705 185.082,200.000 182.574 C 209.295 180.065,217.575 177.840,218.400 177.629 C 219.225 177.418,225.156 175.832,231.581 174.104 C 238.006 172.376,243.477 170.923,243.739 170.876 C 244.001 170.828,245.989 170.308,248.158 169.721 C 263.858 165.464,270.089 163.800,270.330 163.800 C 270.483 163.800,269.943 163.192,269.131 162.450 C 268.319 161.708,266.624 160.136,265.363 158.959 C 264.103 157.781,262.853 156.724,262.586 156.609 C 262.319 156.495,261.965 156.322,261.800 156.225 C 260.681 155.570,258.399 154.760,257.745 154.786 C 257.202 154.808,176.107 138.457,172.899 137.679 C 172.679 137.625,172.386 137.694,172.249 137.831 M200.609 139.889 C 200.477 140.048,200.409 140.385,200.457 140.639 C 200.537 141.055,200.548 141.047,200.573 140.560 C 200.588 140.263,200.758 139.928,200.950 139.816 C 201.143 139.704,201.199 139.609,201.074 139.606 C 200.950 139.603,200.741 139.730,200.609 139.889 M242.886 148.514 C 243.059 148.687,243.200 148.951,243.200 149.100 C 243.200 149.249,243.059 149.513,242.886 149.686 C 242.713 149.859,242.665 150.000,242.779 150.000 C 242.893 150.000,243.088 149.809,243.214 149.575 C 243.465 149.104,243.187 148.200,242.790 148.200 C 242.670 148.200,242.713 148.341,242.886 148.514 M252.893 168.870 C 253.181 169.081,253.233 169.290,253.131 169.820 C 253.039 170.299,253.059 170.411,253.197 170.200 C 253.599 169.587,253.306 168.600,252.722 168.600 C 252.613 168.600,252.690 168.721,252.893 168.870 M253.864 172.400 C 253.864 173.115,253.900 173.408,253.945 173.050 C 253.989 172.692,253.989 172.108,253.945 171.750 C 253.900 171.393,253.864 171.685,253.864 172.400 M300.449 208.501 C 300.465 217.797,300.537 225.498,300.610 225.616 C 300.764 225.866,303.475 227.048,340.600 243.052 C 345.055 244.973,349.105 246.725,349.600 246.947 C 353.853 248.848,368.770 255.200,368.982 255.200 C 369.130 255.200,368.453 254.452,367.476 253.537 C 364.153 250.425,351.281 238.508,349.074 236.500 C 346.948 234.566,337.800 226.094,335.639 224.059 C 334.861 223.325,334.459 223.082,334.130 223.145 C 333.676 223.232,309.143 201.404,308.857 200.659 C 308.792 200.491,308.822 200.119,308.922 199.833 C 309.083 199.375,309.011 199.229,308.310 198.607 C 307.873 198.218,305.997 196.483,304.140 194.750 C 302.284 193.018,300.687 191.600,300.592 191.600 C 300.497 191.600,300.433 199.140,300.449 208.501 M217.881 203.800 C 217.881 205.615,217.912 206.357,217.949 205.450 C 217.986 204.543,217.986 203.058,217.949 202.150 C 217.912 201.243,217.881 201.985,217.881 203.800 M253.680 227.200 C 253.680 228.905,253.711 229.603,253.749 228.750 C 253.786 227.898,253.786 226.503,253.749 225.650 C 253.711 224.798,253.680 225.495,253.680 227.200 M218.081 278.000 C 218.081 279.815,218.112 280.558,218.149 279.650 C 218.186 278.743,218.186 277.257,218.149 276.350 C 218.112 275.443,218.081 276.185,218.081 278.000 M253.478 294.900 C 253.478 296.330,253.510 296.889,253.548 296.142 C 253.587 295.395,253.587 294.225,253.548 293.542 C 253.509 292.859,253.477 293.470,253.478 294.900 " stroke="none" fill="#b0857d" fill-rule="evenodd"></path><path id="path4" d="M270.800 35.339 C 267.309 35.714,263.333 36.816,260.500 38.194 C 259.180 38.836,257.240 39.593,256.190 39.876 C 255.139 40.159,253.159 40.746,251.790 41.180 C 244.797 43.395,239.865 44.400,235.982 44.400 C 234.594 44.400,232.569 44.562,231.147 44.788 C 228.379 45.226,226.725 45.290,223.358 45.086 C 219.087 44.828,214.937 46.210,211.580 49.007 L 210.659 49.774 209.680 48.768 C 205.349 44.323,199.553 43.381,193.134 46.079 C 189.568 47.577,187.621 48.361,185.900 48.989 C 184.910 49.350,183.110 50.118,181.900 50.694 C 179.323 51.922,178.337 52.249,175.900 52.686 C 173.781 53.067,171.386 54.164,169.936 55.420 C 168.967 56.259,167.000 58.858,167.000 59.298 C 167.000 59.438,171.383 60.795,177.750 62.627 L 188.500 65.721 188.640 63.987 C 189.238 56.597,193.510 49.556,198.832 47.190 C 201.760 45.888,206.083 46.759,208.092 49.055 C 209.229 50.355,209.227 50.377,207.920 51.277 C 207.326 51.687,206.737 52.269,206.612 52.571 C 206.487 52.874,206.184 53.341,205.939 53.611 C 203.446 56.350,202.154 60.398,201.853 66.411 L 201.747 68.523 201.167 68.438 C 200.692 68.368,200.428 68.511,199.712 69.226 C 198.354 70.583,170.722 113.725,170.687 114.543 C 170.672 114.897,170.550 115.320,170.415 115.482 C 169.621 116.438,169.246 116.248,186.686 123.730 C 196.874 128.102,203.194 130.711,203.397 130.630 C 203.576 130.559,204.039 130.140,204.426 129.700 C 205.257 128.757,236.165 81.356,236.476 80.550 C 236.789 79.736,237.158 79.719,239.538 80.402 C 240.727 80.744,241.835 81.062,242.000 81.109 C 242.259 81.184,242.300 80.673,242.300 77.348 C 242.300 71.849,243.624 65.723,245.705 61.589 C 246.114 60.777,246.849 59.075,247.337 57.806 C 248.814 53.972,250.498 51.291,253.433 48.100 C 254.243 47.220,255.206 46.140,255.573 45.700 C 262.488 37.415,270.340 35.035,277.717 38.988 C 279.559 39.976,282.685 42.296,283.700 43.430 C 288.595 48.900,291.754 54.566,294.386 62.600 C 295.197 65.075,296.118 67.747,296.431 68.539 C 299.129 75.339,299.297 88.180,296.779 95.088 C 296.461 95.962,296.200 96.734,296.200 96.805 C 296.200 96.924,297.643 97.439,297.710 97.344 C 300.100 93.923,301.546 88.990,301.323 85.010 C 301.252 83.740,301.163 81.215,301.125 79.400 C 301.049 75.793,300.747 74.257,299.622 71.749 C 299.298 71.027,298.971 69.911,298.895 69.269 C 298.413 65.187,296.423 59.407,294.289 55.893 C 293.797 55.081,293.075 53.581,292.686 52.559 C 291.817 50.279,289.662 46.430,288.249 44.635 C 287.671 43.901,286.746 42.698,286.192 41.962 C 283.895 38.909,281.319 37.123,277.748 36.109 C 275.157 35.374,272.855 35.119,270.800 35.339 M334.753 85.314 C 334.690 85.377,332.672 85.505,330.269 85.598 C 322.141 85.915,313.567 88.420,308.700 91.901 C 303.733 95.454,299.688 99.611,300.348 100.486 C 300.674 100.918,300.692 100.905,302.788 98.800 C 310.452 91.105,323.492 87.539,338.300 89.089 C 339.950 89.262,343.415 89.437,346.000 89.479 C 363.492 89.763,370.950 100.809,365.311 118.078 C 363.725 122.934,362.842 124.167,354.734 132.855 C 349.311 138.666,342.336 142.644,336.393 143.317 C 334.912 143.484,334.692 142.998,338.216 147.352 C 340.870 150.633,341.184 151.097,340.837 151.226 C 340.257 151.440,340.675 150.815,324.292 175.989 C 309.092 199.345,308.633 200.078,308.854 200.652 C 308.974 200.966,332.846 222.575,333.576 223.031 C 334.410 223.552,334.737 223.099,349.300 201.232 C 357.876 188.357,363.824 179.609,364.007 179.606 C 364.588 179.595,364.473 178.408,363.812 177.585 C 363.180 176.799,363.266 176.600,364.234 176.600 C 368.157 176.600,378.400 166.979,378.400 163.294 C 378.400 160.569,384.434 164.405,385.205 167.621 C 385.659 169.514,385.550 173.500,385.005 174.900 C 384.230 176.892,381.236 181.029,379.473 182.543 C 378.861 183.069,377.833 183.958,377.191 184.518 C 376.548 185.078,374.939 186.120,373.616 186.835 L 371.210 188.134 378.552 197.190 L 385.893 206.247 386.666 205.376 C 389.901 201.730,390.487 196.645,388.293 191.260 C 387.046 188.197,386.298 180.396,386.792 175.587 C 387.478 168.902,385.463 164.376,380.664 161.818 L 379.474 161.184 379.622 160.142 C 380.370 154.899,379.404 148.515,377.181 144.003 C 375.430 140.449,372.387 132.068,372.096 130.000 C 372.042 129.615,371.902 125.970,371.785 121.900 C 371.347 106.672,371.301 105.887,370.722 103.944 C 369.427 99.600,365.586 93.885,362.089 91.098 C 358.768 88.452,353.344 86.440,348.324 85.992 C 347.211 85.893,345.400 85.676,344.300 85.510 C 342.358 85.216,335.001 85.066,334.753 85.314 M107.700 140.814 C 107.260 140.908,97.135 142.654,85.200 144.694 C 73.265 146.734,63.275 148.519,63.000 148.659 C 62.417 148.958,62.304 149.933,62.815 150.255 C 63.073 150.418,104.479 143.504,108.694 142.594 C 109.914 142.331,110.282 141.682,109.600 141.000 C 109.171 140.571,108.941 140.548,107.700 140.814 M239.600 172.023 C 225.923 175.730,218.828 177.604,217.900 177.753 C 216.728 177.942,216.335 178.997,217.276 179.425 L 217.751 179.642 217.873 200.671 C 217.940 212.237,218.049 243.074,218.115 269.197 C 218.241 318.609,218.215 317.400,219.140 317.400 C 219.612 317.400,251.982 299.063,253.089 298.168 L 253.500 297.835 253.673 234.378 C 253.846 170.949,253.846 170.921,253.444 170.596 C 253.150 170.357,253.071 170.118,253.150 169.704 C 253.258 169.140,252.822 168.575,252.312 168.618 C 252.195 168.627,246.475 170.160,239.600 172.023 M58.010 170.288 C 57.878 170.447,57.800 170.751,57.835 170.965 C 57.871 171.182,57.705 171.519,57.460 171.727 L 57.019 172.100 56.880 234.509 C 56.803 268.835,56.802 297.249,56.878 297.652 C 57.002 298.313,57.179 298.482,58.658 299.351 C 80.354 312.103,91.618 318.434,92.076 318.134 L 92.551 317.823 92.671 302.361 C 92.780 288.302,92.999 213.086,93.000 189.650 L 93.000 180.000 93.593 180.000 C 94.909 180.000,94.791 178.570,93.447 178.219 C 91.093 177.604,58.810 170.000,58.555 170.000 C 58.387 170.000,58.141 170.130,58.010 170.288 " stroke="none" fill="#e95c3b" fill-rule="evenodd"></path><path id="path5" d="M268.831 37.206 C 264.308 37.825,259.672 40.794,255.574 45.700 C 255.206 46.140,254.243 47.220,253.433 48.100 C 250.498 51.291,248.814 53.972,247.337 57.806 C 246.849 59.075,246.114 60.777,245.705 61.589 C 243.347 66.273,241.498 76.643,242.338 80.477 L 242.508 81.254 268.804 88.817 C 283.267 92.976,295.256 96.474,295.447 96.590 C 296.046 96.952,296.147 96.842,296.760 95.149 C 299.298 88.135,299.140 75.367,296.431 68.539 C 296.118 67.747,295.197 65.075,294.386 62.600 C 291.754 54.566,288.606 48.918,283.700 43.429 C 280.026 39.319,273.466 36.573,268.831 37.206 M200.069 46.795 C 194.597 47.965,189.167 56.156,188.657 64.010 L 188.546 65.721 194.217 67.352 C 199.425 68.850,199.916 68.957,200.236 68.668 C 200.447 68.476,200.812 68.386,201.166 68.438 L 201.747 68.523 201.853 66.411 C 202.154 60.398,203.446 56.350,205.939 53.611 C 206.184 53.341,206.487 52.874,206.612 52.571 C 206.737 52.269,207.326 51.687,207.920 51.277 C 209.227 50.377,209.229 50.355,208.092 49.055 C 206.366 47.082,203.069 46.153,200.069 46.795 M324.800 88.954 C 319.907 89.328,311.404 92.361,306.955 95.318 C 304.934 96.661,300.694 100.593,300.835 100.995 C 300.871 101.098,303.555 104.445,306.800 108.433 C 310.045 112.421,313.677 116.903,314.872 118.392 C 316.067 119.881,321.107 126.125,326.072 132.267 L 335.100 143.434 336.316 143.315 C 342.157 142.743,349.284 138.695,354.734 132.855 C 362.842 124.167,363.725 122.934,365.311 118.078 C 368.060 109.661,367.711 102.257,364.344 97.556 C 360.370 92.007,354.959 89.624,346.000 89.479 C 343.415 89.437,339.960 89.263,338.322 89.092 C 335.690 88.817,327.660 88.735,324.800 88.954 M201.043 139.823 C 200.425 140.052,200.430 141.047,201.050 141.358 C 201.657 141.662,235.541 148.923,239.200 149.533 C 242.267 150.044,242.901 150.027,243.091 149.428 C 243.413 148.415,243.211 148.325,239.000 147.603 C 236.646 147.199,205.945 140.704,201.793 139.732 C 201.623 139.692,201.286 139.733,201.043 139.823 M378.707 162.321 C 378.538 162.490,378.400 162.928,378.400 163.294 C 378.400 166.979,368.157 176.600,364.234 176.600 C 363.260 176.600,363.180 176.799,363.831 177.609 C 364.286 178.175,364.424 178.520,364.350 178.907 C 364.275 179.299,364.431 179.672,364.960 180.367 C 366.458 182.334,370.842 187.709,371.090 187.883 C 371.461 188.144,375.735 185.785,377.197 184.512 C 377.836 183.955,378.861 183.069,379.473 182.543 C 381.236 181.029,384.230 176.892,385.005 174.900 C 385.550 173.500,385.659 169.514,385.205 167.621 C 384.653 165.320,379.727 161.302,378.707 162.321 " stroke="none" fill="#ae2816" fill-rule="evenodd"></path><path id="path6" d="M171.069 135.742 C 171.125 135.939,171.228 136.386,171.298 136.736 C 171.412 137.302,171.530 137.394,172.363 137.572 C 184.287 140.113,257.207 154.805,257.661 154.758 C 258.277 154.694,258.254 154.669,257.000 154.053 C 253.185 152.179,248.326 150.941,239.300 149.543 C 237.540 149.270,229.125 147.545,220.600 145.709 C 212.075 143.873,197.630 140.848,188.500 138.987 C 179.370 137.127,171.690 135.555,171.434 135.494 C 171.057 135.405,170.987 135.453,171.069 135.742 M261.164 166.165 C 253.417 168.268,252.665 168.508,253.033 168.766 C 253.325 168.970,253.415 169.210,253.354 169.625 C 253.250 170.333,251.998 170.584,262.063 167.879 C 271.543 165.332,271.400 165.380,271.400 164.733 C 271.400 163.413,271.199 163.441,261.164 166.165 " stroke="none" fill="#a08883" fill-rule="evenodd"></path></g></svg>